<?xml version="1.0" encoding="UTF-8" standalone="no"?>
<!DOCTYPE svg PUBLIC "-//W3C//DTD SVG 1.1//EN" "http://www.w3.org/Graphics/SVG/1.1/DTD/svg11.dtd">
<svg width="100%" height="100%" viewBox="0 0 1080 1080" version="1.1" xmlns="http://www.w3.org/2000/svg" xmlns:xlink="http://www.w3.org/1999/xlink" xml:space="preserve" xmlns:serif="http://www.serif.com/" style="fill-rule:evenodd;clip-rule:evenodd;stroke-miterlimit:2;">
    <g transform="matrix(1.70492,0,0,1.70492,546.083,659.864)">
        <clipPath id="_clip1">
            <rect x="-317.434" y="-239.583" width="630.653" height="350.393"/>
        </clipPath>
        <g clip-path="url(#_clip1)">
            <g transform="matrix(1,0,0,1,-516.667,-239.583)">
                <clipPath id="_clip2">
                    <rect x="0" y="0" width="1033.33" height="479.167"/>
                </clipPath>
                <g clip-path="url(#_clip2)">
                    <g transform="matrix(4.16667,0,0,4.16667,0,0)">
                        <path d="M179.947,93.965L247.894,93.965" style="fill:none;stroke:rgb(255,196,36);stroke-width:0.5px;"/>
                        <path d="M0.208,93.965L68.155,93.965" style="fill:none;stroke:rgb(255,196,36);stroke-width:0.5px;"/>
                        <path d="M73.709,95.649L71.749,95.649L71.749,93.787L73.611,93.787L73.611,93.297L71.749,93.297L71.749,91.806L73.688,91.806L73.688,91.316L71.189,91.316L71.189,96.139L73.709,96.139L73.709,95.649Z" style="fill:rgb(255,196,36);fill-rule:nonzero;"/>
                        <path d="M78.701,91.316L78.141,91.316L78.141,93.255L76.489,93.255L76.489,91.316L75.929,91.316L75.929,96.139L76.489,96.139L76.489,93.745L78.141,93.745L78.141,96.139L78.701,96.139L78.701,91.316Z" style="fill:rgb(255,196,36);fill-rule:nonzero;"/>
                        <path d="M82.586,93.829C82.929,93.745 83.195,93.591 83.384,93.36C83.58,93.136 83.678,92.87 83.678,92.576C83.678,92.184 83.545,91.869 83.279,91.652C83.013,91.428 82.649,91.316 82.194,91.316L80.829,91.316L80.829,96.139L81.389,96.139L81.389,93.948L82.012,93.948L83.426,96.139L84.126,96.139L82.586,93.829ZM81.389,91.806L82.11,91.806C82.768,91.806 83.097,92.072 83.097,92.611C83.097,92.856 83.006,93.059 82.817,93.22C82.635,93.381 82.397,93.458 82.096,93.458L81.389,93.458L81.389,91.806Z" style="fill:rgb(255,196,36);fill-rule:nonzero;"/>
                        <path d="M88.502,91.316L87.942,91.316L87.942,94.578C87.942,94.984 87.879,95.285 87.746,95.467C87.613,95.649 87.41,95.74 87.13,95.74C86.57,95.74 86.29,95.355 86.29,94.585L86.29,91.316L85.73,91.316L85.73,94.634C85.73,95.698 86.199,96.23 87.13,96.23C87.592,96.23 87.935,96.104 88.159,95.845C88.39,95.586 88.502,95.18 88.502,94.62L88.502,91.316Z" style="fill:rgb(255,196,36);fill-rule:nonzero;"/>
                        <path d="M93.473,91.316L92.92,91.316L92.92,95.089L91.184,91.316L90.561,91.316L90.561,96.139L91.121,96.139L91.121,92.331L92.85,96.139L93.473,96.139L93.473,91.316Z" style="fill:rgb(255,196,36);fill-rule:nonzero;"/>
                        <path d="M98.471,93.857L97.043,93.857L97.043,94.34L97.911,94.34L97.911,95.53C97.743,95.67 97.491,95.74 97.162,95.74C96.287,95.74 95.846,95.068 95.846,93.731C95.846,93.031 95.958,92.527 96.175,92.198C96.392,91.876 96.721,91.715 97.162,91.715C97.547,91.715 97.897,91.806 98.219,91.988L98.401,91.547C98.261,91.449 98.079,91.372 97.855,91.316C97.624,91.253 97.393,91.225 97.162,91.225C96.518,91.225 96.035,91.442 95.72,91.883C95.405,92.324 95.251,92.94 95.251,93.731C95.251,94.55 95.412,95.166 95.734,95.593C96.063,96.02 96.532,96.23 97.162,96.23C97.638,96.23 98.079,96.09 98.471,95.796L98.471,93.857Z" style="fill:rgb(255,196,36);fill-rule:nonzero;"/>
                        <path d="M108.274,93.857L106.846,93.857L106.846,94.34L107.714,94.34L107.714,95.53C107.546,95.67 107.294,95.74 106.965,95.74C106.09,95.74 105.649,95.068 105.649,93.731C105.649,93.031 105.761,92.527 105.978,92.198C106.195,91.876 106.524,91.715 106.965,91.715C107.35,91.715 107.7,91.806 108.022,91.988L108.204,91.547C108.064,91.449 107.882,91.372 107.658,91.316C107.427,91.253 107.196,91.225 106.965,91.225C106.321,91.225 105.838,91.442 105.523,91.883C105.208,92.324 105.054,92.94 105.054,93.731C105.054,94.55 105.215,95.166 105.537,95.593C105.866,96.02 106.335,96.23 106.965,96.23C107.441,96.23 107.882,96.09 108.274,95.796L108.274,93.857Z" style="fill:rgb(255,196,36);fill-rule:nonzero;"/>
                        <path d="M113.007,91.316L112.447,91.316L112.447,94.578C112.447,94.984 112.384,95.285 112.251,95.467C112.118,95.649 111.915,95.74 111.635,95.74C111.075,95.74 110.795,95.355 110.795,94.585L110.795,91.316L110.235,91.316L110.235,94.634C110.235,95.698 110.704,96.23 111.635,96.23C112.097,96.23 112.44,96.104 112.664,95.845C112.895,95.586 113.007,95.18 113.007,94.62L113.007,91.316ZM112.034,90.231C111.964,90.301 111.929,90.392 111.929,90.497C111.929,90.595 111.964,90.679 112.041,90.756C112.111,90.833 112.195,90.868 112.3,90.868C112.398,90.868 112.482,90.833 112.552,90.756C112.622,90.679 112.657,90.595 112.657,90.497C112.657,90.392 112.622,90.301 112.559,90.231C112.489,90.161 112.405,90.126 112.3,90.126C112.195,90.126 112.104,90.161 112.034,90.231ZM110.69,90.231C110.613,90.301 110.578,90.392 110.578,90.497C110.578,90.595 110.613,90.679 110.69,90.756C110.76,90.833 110.851,90.868 110.949,90.868C111.047,90.868 111.138,90.833 111.208,90.756C111.278,90.686 111.313,90.602 111.313,90.497C111.313,90.392 111.278,90.301 111.208,90.231C111.138,90.161 111.054,90.126 110.949,90.126C110.844,90.126 110.76,90.161 110.69,90.231Z" style="fill:rgb(255,196,36);fill-rule:nonzero;"/>
                        <path d="M117.922,95.649L115.857,95.649L115.857,91.316L115.297,91.316L115.297,96.139L117.922,96.139L117.922,95.649Z" style="fill:rgb(255,196,36);fill-rule:nonzero;"/>
                        <path d="M123.194,91.316L119.659,91.316L119.659,91.771L121.15,91.771L121.15,96.139L121.71,96.139L121.71,91.771L123.194,91.771L123.194,91.316Z" style="fill:rgb(255,196,36);fill-rule:nonzero;"/>
                        <path d="M127.396,95.649L126.598,95.649L126.598,91.806L127.396,91.806L127.396,91.316L125.205,91.316L125.205,91.806L126.038,91.806L126.038,95.649L125.205,95.649L125.205,96.139L127.396,96.139L127.396,95.649Z" style="fill:rgb(255,196,36);fill-rule:nonzero;"/>
                        <path d="M132.78,93.857L131.352,93.857L131.352,94.34L132.22,94.34L132.22,95.53C132.052,95.67 131.8,95.74 131.471,95.74C130.596,95.74 130.155,95.068 130.155,93.731C130.155,93.031 130.267,92.527 130.484,92.198C130.701,91.876 131.03,91.715 131.471,91.715C131.856,91.715 132.206,91.806 132.528,91.988L132.71,91.547C132.57,91.449 132.388,91.372 132.164,91.316C131.933,91.253 131.702,91.225 131.471,91.225C130.827,91.225 130.344,91.442 130.029,91.883C129.714,92.324 129.56,92.94 129.56,93.731C129.56,94.55 129.721,95.166 130.043,95.593C130.372,96.02 130.841,96.23 131.471,96.23C131.947,96.23 132.388,96.09 132.78,95.796L132.78,93.857Z" style="fill:rgb(255,196,36);fill-rule:nonzero;"/>
                        <path d="M141.609,93.479C141.875,93.402 142.085,93.269 142.232,93.094C142.386,92.919 142.463,92.716 142.463,92.485C142.463,92.114 142.33,91.827 142.071,91.624C141.805,91.421 141.441,91.316 140.979,91.316L139.642,91.316L139.642,96.139L141.014,96.139C141.462,96.139 141.84,96.006 142.162,95.747C142.477,95.488 142.638,95.138 142.638,94.704C142.638,94.403 142.547,94.144 142.365,93.934C142.183,93.717 141.931,93.57 141.609,93.493L141.609,93.479ZM140.202,91.806L140.895,91.806C141.217,91.806 141.469,91.862 141.637,91.981C141.805,92.107 141.889,92.275 141.889,92.499C141.889,92.989 141.546,93.234 140.86,93.234L140.202,93.234L140.202,91.806ZM140.202,93.724L140.797,93.724C141.203,93.724 141.511,93.808 141.728,93.976C141.938,94.151 142.05,94.389 142.05,94.704C142.05,94.998 141.938,95.229 141.721,95.397C141.504,95.565 141.21,95.649 140.839,95.649L140.202,95.649L140.202,93.724Z" style="fill:rgb(255,196,36);fill-rule:nonzero;"/>
                        <path d="M147,95.649L146.202,95.649L146.202,91.806L147,91.806L147,91.316L144.809,91.316L144.809,91.806L145.642,91.806L145.642,95.649L144.809,95.649L144.809,96.139L147,96.139L147,95.649Z" style="fill:rgb(255,196,36);fill-rule:nonzero;"/>
                        <path d="M151.986,91.372C151.671,91.274 151.349,91.225 151.027,91.225C150.586,91.225 150.222,91.337 149.935,91.561C149.648,91.785 149.508,92.093 149.508,92.492C149.508,92.639 149.536,92.779 149.592,92.912C149.641,93.038 149.718,93.15 149.823,93.255C149.921,93.36 150.019,93.437 150.124,93.493C150.222,93.556 150.446,93.661 150.796,93.822C151.132,93.976 151.363,94.13 151.489,94.277C151.615,94.424 151.678,94.606 151.678,94.823C151.678,95.11 151.58,95.341 151.391,95.502C151.195,95.67 150.943,95.754 150.621,95.754C150.348,95.754 150.026,95.67 149.662,95.502L149.543,95.985C149.858,96.146 150.222,96.23 150.635,96.23C151.062,96.23 151.433,96.104 151.748,95.845C152.063,95.586 152.224,95.222 152.224,94.753C152.224,94.564 152.189,94.389 152.119,94.242C152.042,94.088 151.951,93.955 151.832,93.843C151.713,93.731 151.594,93.647 151.482,93.584C151.363,93.521 151.132,93.402 150.775,93.241C150.292,93.017 150.054,92.765 150.054,92.471C150.054,92.226 150.145,92.037 150.327,91.904C150.509,91.771 150.747,91.701 151.041,91.701C151.3,91.701 151.573,91.75 151.86,91.848L151.986,91.372Z" style="fill:rgb(255,196,36);fill-rule:nonzero;"/>
                        <path d="M161.885,95.649L159.855,95.649C160.471,94.97 160.877,94.501 161.094,94.242C161.304,93.983 161.479,93.703 161.612,93.423C161.752,93.136 161.815,92.849 161.815,92.562C161.815,92.156 161.682,91.834 161.423,91.589C161.157,91.344 160.814,91.225 160.38,91.225C160.002,91.225 159.645,91.295 159.302,91.442L159.379,91.925C159.757,91.785 160.065,91.715 160.289,91.715C160.583,91.715 160.814,91.792 160.975,91.946C161.136,92.1 161.22,92.317 161.22,92.583C161.22,92.863 161.157,93.143 161.031,93.423C160.905,93.703 160.744,93.969 160.541,94.228C160.338,94.48 159.904,94.984 159.232,95.733L159.232,96.139L161.885,96.139L161.885,95.649Z" style="fill:rgb(255,196,36);fill-rule:nonzero;"/>
                        <path d="M164.337,91.897C164.071,92.352 163.938,92.961 163.938,93.731C163.938,94.522 164.071,95.138 164.351,95.572C164.624,96.013 165.016,96.23 165.527,96.23C166.052,96.23 166.451,96.006 166.717,95.558C166.983,95.103 167.116,94.494 167.116,93.731C167.116,92.933 166.976,92.324 166.703,91.883C166.43,91.442 166.038,91.225 165.527,91.225C165.002,91.225 164.603,91.449 164.337,91.897ZM164.778,95.257C164.617,94.935 164.533,94.424 164.533,93.731C164.533,93.045 164.617,92.541 164.778,92.212C164.946,91.883 165.191,91.722 165.527,91.722C165.863,91.722 166.115,91.883 166.276,92.198C166.437,92.52 166.521,93.031 166.521,93.731C166.521,94.431 166.437,94.942 166.276,95.257C166.115,95.579 165.863,95.74 165.527,95.74C165.191,95.74 164.939,95.579 164.778,95.257ZM165.149,93.367C165.058,93.465 165.009,93.584 165.009,93.731C165.009,93.878 165.058,94.004 165.156,94.109C165.254,94.214 165.373,94.27 165.513,94.27C165.653,94.27 165.772,94.214 165.877,94.109C165.975,94.004 166.024,93.878 166.024,93.731C166.024,93.584 165.975,93.465 165.877,93.367C165.779,93.269 165.653,93.22 165.513,93.22C165.366,93.22 165.247,93.269 165.149,93.367Z" style="fill:rgb(255,196,36);fill-rule:nonzero;"/>
                        <path d="M171.688,95.649L169.658,95.649C170.274,94.97 170.68,94.501 170.897,94.242C171.107,93.983 171.282,93.703 171.415,93.423C171.555,93.136 171.618,92.849 171.618,92.562C171.618,92.156 171.485,91.834 171.226,91.589C170.96,91.344 170.617,91.225 170.183,91.225C169.805,91.225 169.448,91.295 169.105,91.442L169.182,91.925C169.56,91.785 169.868,91.715 170.092,91.715C170.386,91.715 170.617,91.792 170.778,91.946C170.939,92.1 171.023,92.317 171.023,92.583C171.023,92.863 170.96,93.143 170.834,93.423C170.708,93.703 170.547,93.969 170.344,94.228C170.141,94.48 169.707,94.984 169.035,95.733L169.035,96.139L171.688,96.139L171.688,95.649Z" style="fill:rgb(255,196,36);fill-rule:nonzero;"/>
                        <path d="M174.72,91.806L176.435,91.806L176.435,91.316L174.23,91.316L174.23,93.619L174.566,93.773C174.755,93.696 174.951,93.661 175.147,93.661C175.413,93.661 175.637,93.745 175.805,93.92C175.98,94.095 176.064,94.34 176.064,94.662C176.064,95.005 175.973,95.264 175.791,95.453C175.609,95.642 175.371,95.74 175.077,95.74C174.748,95.74 174.426,95.677 174.118,95.544L174.006,96.02C174.293,96.16 174.643,96.23 175.063,96.23C175.504,96.23 175.882,96.076 176.19,95.775C176.498,95.474 176.652,95.103 176.652,94.662C176.652,94.242 176.519,93.899 176.253,93.619C175.987,93.339 175.63,93.199 175.175,93.199C175.028,93.199 174.874,93.22 174.72,93.262L174.72,91.806Z" style="fill:rgb(255,196,36);fill-rule:nonzero;"/>
                        <path d="M178.685,58.367C177.463,58.367 176.474,57.378 176.474,56.158C176.474,54.938 177.463,53.948 178.685,53.948C179.905,53.948 180.895,54.938 180.895,56.158C180.895,57.378 179.905,58.367 178.685,58.367ZM178.685,38.635C179.905,38.635 180.895,39.624 180.895,40.846C180.895,42.065 179.905,43.055 178.685,43.055C177.463,43.055 176.474,42.065 176.474,40.846C176.474,39.624 177.463,38.635 178.685,38.635ZM178.685,52.255C177.549,52.255 176.533,52.751 175.819,53.528L169.133,49.666C169.249,49.296 169.33,48.91 169.33,48.503C169.33,48.094 169.249,47.709 169.133,47.339L175.819,43.476C176.533,44.252 177.549,44.748 178.685,44.748C180.837,44.748 182.588,42.997 182.588,40.846C182.588,38.693 180.837,36.942 178.685,36.942C176.532,36.942 174.781,38.693 174.781,40.846C174.781,41.253 174.862,41.639 174.978,42.008L168.291,45.871C167.577,45.095 166.563,44.599 165.427,44.599C163.274,44.599 161.524,46.35 161.524,48.503C161.524,50.654 163.274,52.405 165.427,52.405C166.563,52.405 167.577,51.909 168.291,51.134L174.978,54.996C174.862,55.365 174.781,55.751 174.781,56.158C174.781,58.309 176.532,60.06 178.685,60.06C180.837,60.06 182.588,58.309 182.588,56.158C182.588,54.006 180.837,52.255 178.685,52.255ZM151.464,54.607L145.247,54.607L145.247,48.693L151.161,48.693L151.161,47.141L145.247,47.141L145.247,42.399L151.399,42.399L151.399,40.847L143.468,40.847L143.468,56.16L151.464,56.16L151.464,54.607ZM136.239,54.606L129.685,54.606L129.685,40.846L127.905,40.846L127.905,56.158L136.239,56.158L136.239,54.606ZM120.636,40.846L118.856,40.846L118.856,51.199C118.856,52.501 118.649,53.441 118.232,54.02C117.816,54.599 117.162,54.889 116.274,54.889C114.501,54.889 113.614,53.666 113.614,51.22L113.614,40.846L111.834,40.846L111.834,51.384C111.834,54.762 113.315,56.452 116.274,56.452C117.742,56.452 118.836,56.043 119.556,55.225C120.276,54.408 120.636,53.112 120.636,51.34L120.636,40.846ZM105.077,40.846L103.298,40.846L103.298,46.999L98.055,46.999L98.055,40.846L96.275,40.846L96.275,56.158L98.055,56.158L98.055,48.562L103.298,48.562L103.298,56.158L105.077,56.158L105.077,40.846ZM89.516,53.803C88.278,54.527 87.071,54.889 85.891,54.889C83.106,54.889 81.713,52.761 81.713,48.508C81.713,46.293 82.057,44.675 82.745,43.651C83.431,42.627 84.481,42.115 85.891,42.115C87.107,42.115 88.224,42.405 89.245,42.984L89.83,41.583C89.389,41.273 88.807,41.023 88.084,40.835C87.359,40.646 86.629,40.552 85.891,40.552C83.843,40.552 82.32,41.256 81.322,42.664C80.324,44.071 79.825,46.018 79.825,48.508C79.825,51.084 80.339,53.051 81.371,54.412C82.402,55.771 83.908,56.452 85.891,56.452C87.475,56.452 88.868,56.035 90.07,55.204L89.516,53.803ZM73.217,41.019C72.212,40.708 71.199,40.552 70.178,40.552C68.782,40.552 67.628,40.906 66.717,41.617C65.804,42.325 65.349,43.313 65.349,44.578C65.349,45.056 65.435,45.497 65.61,45.903C65.783,46.308 66.029,46.674 66.348,46.999C66.666,47.325 66.986,47.58 67.308,47.764C67.63,47.949 68.34,48.294 69.44,48.8C70.511,49.292 71.245,49.776 71.643,50.249C72.041,50.723 72.241,51.3 72.241,51.98C72.241,52.899 71.934,53.621 71.323,54.145C70.712,54.669 69.9,54.933 68.888,54.933C68.019,54.933 67.002,54.668 65.837,54.139L65.468,55.67C66.46,56.191 67.613,56.452 68.93,56.452C70.291,56.452 71.471,56.041 72.474,55.22C73.476,54.398 73.977,53.243 73.977,51.753C73.977,51.151 73.863,50.612 73.634,50.13C73.407,49.649 73.106,49.231 72.729,48.877C72.352,48.522 71.982,48.243 71.617,48.041C71.25,47.838 70.503,47.477 69.376,46.956C67.848,46.254 67.085,45.439 67.085,44.513C67.085,43.732 67.376,43.13 67.959,42.707C68.541,42.283 69.295,42.071 70.222,42.071C71.039,42.071 71.904,42.227 72.816,42.538L73.217,41.019ZM182.588,27.934L176.369,27.934L176.369,22.02L182.284,22.02L182.284,20.468L176.369,20.468L176.369,15.726L182.522,15.726L182.522,14.174L174.588,14.174L174.588,29.486L182.588,29.486L182.588,27.934ZM167.362,27.934L160.807,27.934L160.807,14.174L159.027,14.174L159.027,29.486L167.362,29.486L167.362,27.934ZM145.377,22.574L147.373,16.235L149.38,22.574L145.377,22.574ZM148.448,14.174L146.31,14.174L141.307,29.486L143.152,29.486L144.866,24.125L149.891,24.125L151.584,29.486L153.45,29.486L148.448,14.174ZM137.424,14.174L126.192,14.174L126.192,15.618L130.935,15.618L130.935,29.486L132.702,29.486L132.702,15.618L137.424,15.618L137.424,14.174ZM119.639,27.934L117.099,27.934L117.099,15.726L119.639,15.726L119.639,14.174L112.681,14.174L112.681,15.726L115.319,15.726L115.319,27.934L112.681,27.934L112.681,29.486L119.639,29.486L119.639,27.934ZM105.61,22.237L101.074,22.237L101.074,23.778L103.83,23.778L103.83,27.555C103.295,27.996 102.503,28.217 101.453,28.217C98.668,28.217 97.274,26.09 97.274,21.836C97.274,19.629 97.621,18.012 98.311,16.985C99.003,15.957 100.05,15.443 101.453,15.443C102.67,15.443 103.787,15.733 104.806,16.312L105.393,14.912C104.952,14.601 104.37,14.351 103.645,14.163C102.922,13.974 102.191,13.88 101.453,13.88C99.398,13.88 97.873,14.578 96.879,15.975C95.883,17.371 95.386,19.325 95.386,21.836C95.386,24.433 95.899,26.406 96.928,27.756C97.954,29.104 99.464,29.78 101.453,29.78C102.972,29.78 104.358,29.32 105.61,28.401L105.61,22.237ZM88.519,27.934L85.979,27.934L85.979,15.726L88.519,15.726L88.519,14.174L81.563,14.174L81.563,15.726L84.199,15.726L84.199,27.934L81.563,27.934L81.563,29.486L88.519,29.486L88.519,27.934ZM66.935,15.726L68.193,15.726C69.64,15.726 70.789,16.27 71.639,17.359C72.489,18.447 72.914,19.94 72.914,21.836C72.914,23.745 72.491,25.239 71.645,26.317C70.798,27.396 69.648,27.934 68.193,27.934L66.935,27.934L66.935,15.726ZM65.155,29.486L68.248,29.486C70.165,29.486 71.737,28.819 72.964,27.485C74.19,26.149 74.803,24.266 74.803,21.836C74.803,19.455 74.199,17.583 72.991,16.219C71.782,14.856 70.177,14.174 68.172,14.174L65.155,14.174L65.155,29.486ZM197.155,4.412L197.155,63.559C197.155,65.679 195.436,67.398 193.316,67.398L65.804,67.398L50.586,82.617L50.586,4.412C50.586,2.292 52.305,0.573 54.425,0.573L193.316,0.573C195.436,0.573 197.155,2.292 197.155,4.412Z" style="fill:rgb(255,196,36);fill-rule:nonzero;"/>
                    </g>
                </g>
            </g>
        </g>
    </g>
</svg>
