<?xml version="1.0" encoding="UTF-8" standalone="no"?>
<!DOCTYPE svg PUBLIC "-//W3C//DTD SVG 1.1//EN" "http://www.w3.org/Graphics/SVG/1.1/DTD/svg11.dtd">
<svg width="100%" height="100%" viewBox="0 0 1080 1080" version="1.1" xmlns="http://www.w3.org/2000/svg" xmlns:xlink="http://www.w3.org/1999/xlink" xml:space="preserve" xmlns:serif="http://www.serif.com/" style="fill-rule:evenodd;clip-rule:evenodd;stroke-linejoin:round;stroke-miterlimit:2;">
    <g transform="matrix(0.460469,0,0,0.460469,539.815,523.295)">
        <g transform="matrix(1,0,0,1,-1280,-367)">
            <g transform="matrix(0.1,0,0,-0.1,0,734)">
                <g transform="matrix(10,0,0,-10.0531,0,7369.73)">
                    <path d="M694.171,274.197C694.171,221.596 651.24,178.892 598.36,178.892L359.267,178.892C306.388,178.892 263.456,221.596 263.456,274.197L263.456,464.806C263.456,517.407 306.388,560.111 359.267,560.111L598.36,560.111C651.24,560.111 694.171,517.407 694.171,464.806L694.171,274.197Z" style="fill:rgb(255,204,0);"/>
                </g>
                <path d="M1360,5980L1360,1370L8270,1370L8270,5980L1360,5980ZM4846,5385L4874,5301L5064,5295L4990,5241C4949,5211 4914,5186 4913,5185C4911,5184 4923,5144 4939,5097C4956,5049 4967,5010 4964,5010C4962,5010 4928,5033 4889,5062C4839,5098 4814,5111 4804,5104C4797,5099 4764,5076 4730,5052C4697,5028 4670,5013 4670,5018C4670,5022 4681,5060 4695,5100C4709,5140 4720,5176 4720,5180C4720,5183 4689,5208 4650,5235C4612,5263 4580,5288 4580,5293C4580,5297 4620,5300 4669,5300L4759,5300L4786,5385C4802,5432 4815,5470 4816,5470C4818,5470 4831,5432 4846,5385ZM4080,5171L4104,5091L4198,5088L4293,5085L4218,5031L4142,4977L4171,4892C4187,4845 4199,4805 4197,4804C4196,4802 4162,4825 4121,4855L4048,4908L3974,4854C3933,4824 3900,4803 3900,4808C3900,4813 3911,4850 3925,4890C3939,4930 3950,4967 3950,4971C3950,4975 3918,5002 3878,5032L3806,5085L3897,5088L3989,5091L4016,5175C4031,5221 4047,5257 4051,5255C4054,5252 4068,5214 4080,5171ZM5616,5175L5644,5091L5738,5088L5831,5085L5756,5031C5714,5001 5680,4976 5680,4975C5680,4974 5693,4935 5709,4887C5742,4789 5745,4790 5645,4864L5584,4908L5512,4854C5473,4824 5439,4800 5436,4800C5433,4800 5444,4839 5461,4887C5477,4935 5490,4975 5490,4976C5490,4977 5457,5002 5418,5031L5345,5085L5529,5091L5555,5175C5569,5222 5582,5260 5585,5260C5587,5260 5601,5222 5616,5175ZM3514,4615L3540,4531L3638,4528L3735,4525L3665,4475C3627,4448 3592,4422 3588,4419C3584,4416 3593,4375 3609,4327C3626,4279 3636,4240 3633,4240C3630,4240 3597,4263 3560,4290C3523,4318 3489,4340 3485,4340C3481,4340 3447,4318 3410,4290C3373,4263 3340,4240 3337,4240C3334,4240 3344,4279 3361,4327C3377,4375 3386,4416 3382,4419C3378,4422 3343,4448 3305,4475L3235,4525L3332,4528L3430,4531L3455,4615C3470,4662 3483,4700 3484,4700C3486,4700 3500,4662 3514,4615ZM6180,4611L6203,4531L6395,4525L6323,4472C6283,4442 6250,4413 6250,4406C6250,4399 6261,4360 6275,4320C6289,4280 6298,4245 6296,4243C6295,4241 6262,4262 6224,4290C6186,4318 6149,4338 6142,4335C6135,4332 6100,4309 6064,4284C6029,4259 6000,4242 6000,4247C6000,4252 6011,4290 6025,4330C6039,4370 6050,4407 6050,4410C6050,4414 6019,4439 5980,4466C5942,4493 5911,4518 5910,4522C5910,4526 5952,4531 6002,4532L6095,4535L6119,4617C6133,4662 6147,4697 6150,4695C6154,4692 6167,4655 6180,4611ZM3311,3841L3335,3761L3430,3758L3524,3755L3452,3702C3412,3672 3380,3643 3380,3636C3380,3629 3391,3590 3405,3550C3419,3510 3429,3475 3427,3474C3425,3472 3393,3493 3355,3520C3317,3548 3282,3570 3278,3570C3274,3570 3240,3548 3203,3521C3166,3493 3134,3473 3132,3474C3131,3476 3141,3513 3155,3556C3168,3600 3180,3638 3180,3641C3180,3645 3147,3672 3108,3701L3035,3755L3225,3765L3249,3847C3263,3892 3277,3927 3280,3925C3284,3923 3298,3885 3311,3841ZM6384,3845L6411,3760L6500,3760C6550,3760 6590,3757 6590,3753C6590,3748 6558,3723 6520,3695C6481,3668 6450,3646 6450,3645C6450,3645 6463,3606 6479,3557C6494,3509 6506,3470 6503,3470C6501,3470 6469,3493 6431,3520C6393,3548 6359,3570 6354,3570C6350,3570 6316,3548 6278,3520C6240,3493 6208,3470 6205,3470C6203,3470 6214,3509 6231,3557C6247,3605 6260,3644 6260,3645C6260,3645 6226,3670 6184,3700L6107,3755L6202,3758L6296,3761L6324,3845C6339,3892 6353,3930 6354,3930C6356,3930 6370,3892 6384,3845ZM3515,3075L3541,2991L3733,2985L3656,2931C3614,2901 3580,2876 3580,2875C3580,2874 3593,2835 3609,2787C3626,2739 3637,2700 3635,2700C3632,2700 3600,2723 3562,2750C3524,2778 3490,2800 3485,2800C3480,2800 3446,2778 3408,2750C3370,2723 3338,2700 3335,2700C3333,2700 3344,2739 3361,2787C3377,2835 3390,2874 3390,2875C3390,2876 3356,2901 3314,2931L3237,2985L3333,2988L3428,2991L3454,3075C3469,3122 3483,3160 3485,3160C3487,3160 3501,3122 3515,3075ZM6180,3071L6204,2991L6299,2988L6395,2985L6322,2932C6283,2903 6250,2874 6250,2867C6250,2859 6261,2820 6275,2780C6289,2740 6299,2705 6297,2704C6295,2702 6263,2723 6226,2750C6188,2778 6153,2800 6148,2800C6144,2800 6109,2778 6072,2751C6035,2724 6004,2705 6002,2709C6001,2713 6011,2749 6025,2790C6039,2830 6050,2867 6050,2871C6050,2875 6017,2902 5978,2932L5905,2985L5999,2990L6094,2995L6118,3077C6132,3122 6146,3157 6150,3155C6154,3152 6168,3114 6180,3071ZM4079,2509L4107,2425L4198,2425C4249,2425 4290,2423 4290,2420C4290,2417 4258,2393 4220,2367C4181,2340 4150,2313 4150,2305C4150,2297 4161,2257 4174,2215C4187,2174 4196,2140 4194,2140C4192,2140 4158,2163 4120,2191C4077,2222 4046,2238 4038,2234C4031,2230 3998,2207 3966,2183C3933,2160 3904,2142 3902,2145C3900,2147 3910,2185 3925,2230C3940,2275 3950,2313 3949,2315C3947,2317 3914,2341 3875,2369L3805,2420L3990,2420L4017,2510C4031,2559 4045,2598 4047,2596C4049,2594 4063,2555 4079,2509ZM5620,2500L5645,2425L5733,2420L5822,2415L5753,2366C5716,2339 5684,2316 5683,2315C5681,2314 5693,2274 5709,2227C5726,2179 5736,2140 5733,2140C5730,2140 5697,2163 5659,2190C5621,2218 5588,2240 5585,2240C5582,2240 5550,2218 5513,2191C5476,2163 5444,2143 5442,2145C5440,2147 5450,2185 5465,2231C5479,2276 5487,2316 5482,2319C5478,2322 5445,2345 5410,2370L5347,2415L5525,2425L5555,2513C5571,2561 5587,2595 5590,2588C5592,2581 5606,2541 5620,2500ZM4846,2305L4874,2221L4968,2218L5063,2215L4988,2161L4912,2107L4937,2026C4951,1982 4964,1942 4967,1938C4975,1923 4964,1930 4890,1984L4816,2038L4743,1984C4703,1954 4670,1933 4670,1937C4670,1942 4681,1981 4695,2025C4709,2069 4720,2106 4720,2106C4720,2107 4687,2132 4648,2161L4575,2215L4759,2221L4787,2305C4802,2352 4815,2390 4816,2390C4818,2390 4831,2352 4846,2305Z" style="fill:rgb(39,101,178);fill-rule:nonzero;"/>
                <path d="M9240,3670L9240,1370L10750,1370L10750,1640L9540,1640L9540,2500L10750,2500L10750,2770L9540,2770L9540,3410L10750,3410L10750,3670L9240,3670Z" style="fill:rgb(39,101,178);fill-rule:nonzero;"/>
                <path d="M23140,3340L23140,2500L22300,2500L22300,2260L23140,2260L23140,1410L23400,1410L23400,2260L24240,2260L24240,2500L23400,2500L23400,3340L23140,3340Z" style="fill:rgb(39,101,178);fill-rule:nonzero;"/>
                <path d="M16519,3138C16385,3126 16272,3078 16116,2965C16074,2935 16037,2910 16034,2910C16032,2910 16030,2953 16030,3005L16030,3100L15750,3100L15750,1370L16030,1370L16030,2659L16083,2698C16162,2758 16276,2819 16360,2847C16427,2869 16447,2872 16545,2868C16643,2864 16661,2861 16709,2835C16774,2799 16805,2760 16833,2678C16854,2617 16854,2596 16858,1993L16861,1370L17151,1370L17149,2016L17147,2663L17226,2717C17388,2828 17500,2870 17641,2870C17802,2870 17897,2817 17940,2703C17973,2614 17979,2489 17980,1913L17980,1370L18270,1370L18270,1913C18270,2211 18266,2507 18261,2570C18244,2780 18197,2905 18096,3005C17989,3111 17886,3145 17685,3138C17580,3134 17539,3128 17474,3107C17385,3077 17263,3008 17152,2923C17112,2892 17078,2869 17077,2871C17075,2873 17059,2898 17041,2927C16942,3086 16758,3160 16519,3138Z" style="fill:rgb(39,101,178);fill-rule:nonzero;"/>
                <path d="M12810,3129C12724,3120 12536,3087 12468,3069L12430,3059L12430,2915C12430,2835 12433,2770 12437,2770C12440,2770 12491,2785 12549,2804C12672,2844 12822,2876 12930,2885C13019,2893 13186,2877 13256,2855C13380,2814 13447,2725 13457,2587L13463,2512L13374,2506C12878,2469 12724,2441 12559,2354C12419,2280 12337,2179 12300,2036C12236,1786 12322,1546 12524,1412C12634,1340 12783,1311 12945,1330C13108,1349 13230,1397 13372,1496C13414,1526 13451,1550 13454,1550C13457,1550 13460,1510 13460,1460L13460,1370L13741,1370L13738,2043C13735,2711 13735,2715 13712,2774C13679,2862 13648,2909 13586,2968C13525,3026 13420,3081 13325,3104C13190,3138 12988,3147 12810,3129ZM13460,2280L13460,1793L13401,1752C13314,1691 13169,1623 13083,1604C12983,1582 12829,1589 12750,1619C12635,1662 12576,1757 12577,1895C12578,2088 12717,2200 13003,2240C13084,2251 13354,2276 13428,2279L13460,2280Z" style="fill:rgb(39,101,178);fill-rule:nonzero;"/>
                <path d="M14625,3126C14332,3080 14141,2922 14099,2691C14075,2556 14115,2409 14200,2316C14290,2219 14405,2170 14672,2115C14971,2054 15044,2028 15093,1970C15159,1892 15155,1758 15084,1681C14987,1573 14730,1540 14490,1605C14382,1635 14240,1699 14152,1759C14118,1781 14089,1800 14086,1800C14082,1800 14080,1726 14080,1636L14080,1473L14158,1442C14380,1355 14484,1335 14705,1335C14844,1336 14890,1340 14961,1357C15183,1413 15338,1533 15400,1698C15413,1730 15424,1789 15427,1835C15436,1976 15399,2090 15316,2173C15221,2267 15136,2302 14853,2360C14744,2382 14626,2410 14590,2422C14448,2467 14387,2533 14386,2645C14385,2756 14448,2830 14583,2872C14688,2905 14857,2903 14993,2867C15087,2842 15256,2767 15328,2720L15360,2698L15360,3011L15303,3037C15227,3070 15048,3115 14935,3129C14823,3143 14728,3142 14625,3126Z" style="fill:rgb(39,101,178);fill-rule:nonzero;"/>
                <path d="M20995,3126C20828,3100 20704,3043 20608,2949C20393,2739 20418,2395 20660,2240C20733,2193 20853,2154 21042,2115C21341,2054 21414,2028 21463,1970C21529,1892 21525,1758 21454,1681C21357,1573 21100,1540 20860,1605C20752,1635 20610,1699 20522,1759C20488,1781 20459,1800 20456,1800C20452,1800 20450,1726 20450,1636L20450,1473L20528,1442C20750,1355 20854,1335 21075,1335C21320,1336 21450,1371 21597,1476C21717,1562 21788,1688 21797,1835C21812,2061 21707,2215 21484,2296C21450,2309 21332,2338 21223,2360C21114,2382 20996,2410 20960,2422C20818,2467 20757,2533 20756,2645C20755,2756 20818,2830 20953,2872C21058,2905 21227,2903 21363,2867C21457,2842 21626,2767 21698,2720L21730,2698L21730,3011L21673,3037C21597,3070 21418,3115 21305,3129C21193,3143 21098,3142 20995,3126Z" style="fill:rgb(39,101,178);fill-rule:nonzero;"/>
                <path d="M11100,3100L11100,1370L11390,1370L11390,2599L11447,2642C11528,2701 11674,2776 11746,2794C11842,2819 12071,2813 12161,2785C12179,2779 12180,2786 12180,2929L12180,3079L12123,3087C12033,3100 11882,3095 11810,3076C11718,3053 11599,2992 11487,2911L11390,2841L11390,3100L11100,3100Z" style="fill:rgb(39,101,178);fill-rule:nonzero;"/>
                <path d="M18662,2453C18666,1822 18666,1803 18688,1727C18745,1521 18870,1393 19063,1343C19146,1322 19315,1322 19403,1343C19497,1366 19597,1415 19713,1493L19810,1559L19810,1370L20100,1370L20100,3100L19810,3100L19810,1801L19749,1759C19665,1702 19549,1646 19462,1620C19401,1601 19371,1598 19277,1601C19180,1605 19158,1609 19115,1631C19013,1684 18965,1785 18950,1974C18945,2040 18940,2321 18940,2598L18940,3100L18659,3100L18662,2453Z" style="fill:rgb(39,101,178);fill-rule:nonzero;"/>
            </g>
        </g>
    </g>
</svg>
