<?xml version="1.0" encoding="UTF-8" standalone="no"?>
<!DOCTYPE svg PUBLIC "-//W3C//DTD SVG 1.1//EN" "http://www.w3.org/Graphics/SVG/1.1/DTD/svg11.dtd">
<svg width="100%" height="100%" viewBox="0 0 1080 1080" version="1.1" xmlns="http://www.w3.org/2000/svg" xmlns:xlink="http://www.w3.org/1999/xlink" xml:space="preserve" xmlns:serif="http://www.serif.com/" style="fill-rule:evenodd;clip-rule:evenodd;stroke-miterlimit:2;">
    <g transform="matrix(1.01574,0,0,1.01574,541.972,622.478)">
        <clipPath id="_clip1">
            <rect x="-518.75" y="-250" width="1037.5" height="343.435"/>
        </clipPath>
        <g clip-path="url(#_clip1)">
            <g transform="matrix(1,0,0,1,-518.75,-250)">
                <clipPath id="_clip2">
                    <rect x="0" y="0" width="1037.5" height="500"/>
                </clipPath>
                <g clip-path="url(#_clip2)">
                    <g transform="matrix(4.16667,0,0,4.16667,0,0)">
                        <path d="M28.652,20.463L28.652,50.862L22.363,50.862L22.363,20.463L9.587,20.463C8.712,20.463 7.956,20.762 7.338,21.352C6.728,21.94 6.419,22.65 6.419,23.501L6.419,50.862L0,50.862L0,23.501C0,20.959 0.926,18.807 2.813,17.025C4.667,15.24 6.94,14.347 9.591,14.347L41.47,14.347C44.131,14.347 46.392,15.24 48.272,17.025C50.13,18.807 51.079,20.959 51.079,23.501L51.079,50.862L44.698,50.862L44.698,23.501C44.698,22.65 44.375,21.94 43.731,21.352C43.101,20.762 42.339,20.463 41.451,20.463L28.652,20.463Z" style="fill:rgb(0,174,158);fill-rule:nonzero;"/>
                        <path d="M113.016,50.862L113.016,23.501C113.016,22.65 112.706,21.94 112.088,21.352C111.467,20.762 110.712,20.463 109.829,20.463L90.764,20.463C89.873,20.463 89.127,20.762 88.506,21.352C87.881,21.94 87.576,22.65 87.576,23.501L87.576,50.862L81.151,50.862L81.151,23.501C81.151,20.959 82.089,18.807 83.958,17.025C85.832,15.24 88.107,14.347 90.76,14.347L109.838,14.347C112.493,14.347 114.765,15.24 116.618,17.025C118.5,18.807 119.436,20.959 119.436,23.501L119.436,50.862L113.016,50.862Z" style="fill:rgb(0,174,158);fill-rule:nonzero;"/>
                        <path d="M149.105,50.862L142.692,50.862L142.692,20.209L126.737,20.209L126.737,14.347L165.04,14.347L165.04,20.209L149.105,20.209L149.105,50.862Z" style="fill:rgb(0,174,158);fill-rule:nonzero;"/>
                        <path d="M70.765,19.001C70.765,21.567 68.675,23.652 66.116,23.652C63.547,23.652 61.465,21.567 61.465,19.001C61.465,16.432 63.547,14.347 66.116,14.347C68.675,14.347 70.765,16.432 70.765,19.001Z" style="fill:rgb(35,31,32);fill-rule:nonzero;"/>
                        <path d="M61.474,32.599C61.474,30.039 63.556,27.957 66.113,27.957C68.674,27.957 70.754,30.039 70.754,32.599C70.754,35.163 68.674,37.249 66.113,37.249C63.556,37.249 61.474,35.163 61.474,32.599Z" style="fill:rgb(239,63,53);"/>
                        <path d="M61.468,46.208C61.468,43.648 63.546,41.564 66.117,41.564C68.686,41.564 70.762,43.648 70.762,46.208C70.762,48.778 68.686,50.862 66.117,50.862C63.546,50.862 61.468,48.778 61.468,46.208Z" style="fill:rgb(255,196,36);"/>
                        <path d="M70.758,5.39C70.758,7.957 68.68,10.042 66.121,10.042C63.556,10.042 61.469,7.957 61.469,5.39C61.469,2.836 63.556,0.75 66.121,0.75C68.68,0.75 70.758,2.836 70.758,5.39Z" style="fill:rgb(0,174,158);"/>
                        <path d="M68.522,61.96L64.409,61.96L64.409,65.207L68.156,65.207L68.156,66.214L64.409,66.214L64.409,70.891L63.255,70.891L63.255,60.954L68.522,60.954L68.522,61.96Z" style="fill:rgb(0,174,158);fill-rule:nonzero;"/>
                        <path d="M74.899,65.37L76.357,65.37C76.967,65.37 77.463,65.204 77.843,64.872C78.224,64.541 78.413,64.125 78.413,63.622C78.413,62.515 77.737,61.96 76.385,61.96L74.899,61.96L74.899,65.37ZM80.54,70.891L79.097,70.891L76.181,66.376L74.899,66.376L74.899,70.891L73.744,70.891L73.744,60.954L76.554,60.954C77.498,60.954 78.243,61.182 78.79,61.64C79.337,62.098 79.61,62.736 79.61,63.552C79.61,64.158 79.411,64.697 79.012,65.168C78.613,65.641 78.064,65.961 77.364,66.13L80.54,70.891Z" style="fill:rgb(0,174,158);fill-rule:nonzero;"/>
                        <path d="M90.086,70.891L84.894,70.891L84.894,60.954L90.044,60.954L90.044,61.96L86.049,61.96L86.049,65.039L89.889,65.039L89.889,66.045L86.049,66.045L86.049,69.884L90.086,69.884L90.086,70.891Z" style="fill:rgb(0,174,158);fill-rule:nonzero;"/>
                        <path d="M101.095,67.764C101.095,68.914 100.861,69.755 100.396,70.286C99.926,70.816 99.216,71.081 98.263,71.081C96.343,71.081 95.383,69.985 95.383,67.792L95.383,60.954L96.538,60.954L96.538,67.687C96.538,69.274 97.113,70.067 98.263,70.067C98.84,70.067 99.264,69.879 99.535,69.503C99.804,69.128 99.94,68.518 99.94,67.672L99.94,60.954L101.095,60.954L101.095,67.764Z" style="fill:rgb(0,174,158);fill-rule:nonzero;"/>
                        <path d="M112.055,70.891L110.774,70.891L107.21,63.045L107.21,70.891L106.056,70.891L106.056,60.954L107.344,60.954L110.92,68.729L110.92,60.954L112.055,60.954L112.055,70.891Z" style="fill:rgb(0,174,158);fill-rule:nonzero;"/>
                        <path d="M118.176,69.884L118.993,69.884C119.938,69.884 120.684,69.535 121.233,68.834C121.784,68.135 122.057,67.165 122.057,65.926C122.057,64.696 121.782,63.727 121.231,63.021C120.678,62.314 119.932,61.96 118.993,61.96L118.176,61.96L118.176,69.884ZM117.022,60.954L118.981,60.954C120.28,60.954 121.323,61.396 122.106,62.281C122.891,63.167 123.282,64.381 123.282,65.926C123.282,67.503 122.885,68.724 122.088,69.592C121.294,70.458 120.274,70.891 119.028,70.891L117.022,70.891L117.022,60.954Z" style="fill:rgb(0,174,158);fill-rule:nonzero;"/>
                        <path d="M133.58,70.891L128.171,70.891L128.171,60.954L129.326,60.954L129.326,69.884L133.58,69.884L133.58,70.891Z" style="fill:rgb(0,174,158);fill-rule:nonzero;"/>
                        <path d="M143.722,70.891L139.207,70.891L139.207,69.884L140.919,69.884L140.919,61.96L139.207,61.96L139.207,60.954L143.722,60.954L143.722,61.96L142.074,61.96L142.074,69.884L143.722,69.884L143.722,70.891Z" style="fill:rgb(0,174,158);fill-rule:nonzero;"/>
                        <path d="M155.55,70.271C154.771,70.811 153.867,71.081 152.837,71.081C151.552,71.081 150.574,70.639 149.904,69.757C149.236,68.874 148.9,67.596 148.9,65.926C148.9,64.311 149.224,63.046 149.874,62.133C150.521,61.22 151.509,60.763 152.837,60.763C153.318,60.763 153.79,60.825 154.261,60.947C154.73,61.069 155.109,61.231 155.394,61.432L155.015,62.341C154.353,61.965 153.626,61.778 152.837,61.778C151.921,61.778 151.242,62.11 150.794,62.774C150.349,63.439 150.126,64.489 150.126,65.926C150.126,68.687 151.031,70.067 152.837,70.067C153.603,70.067 154.388,69.832 155.191,69.363L155.55,70.271Z" style="fill:rgb(0,174,158);fill-rule:nonzero;"/>
                        <path d="M166.009,70.891L164.855,70.891L164.855,65.961L161.453,65.961L161.453,70.891L160.296,70.891L160.296,60.954L161.453,60.954L161.453,64.947L164.855,64.947L164.855,60.954L166.009,60.954L166.009,70.891Z" style="fill:rgb(0,174,158);fill-rule:nonzero;"/>
                        <path d="M176.638,70.891L171.447,70.891L171.447,60.954L176.595,60.954L176.595,61.96L172.603,61.96L172.603,65.039L176.441,65.039L176.441,66.045L172.603,66.045L172.603,69.884L176.638,69.884L176.638,70.891Z" style="fill:rgb(0,174,158);fill-rule:nonzero;"/>
                        <path d="M193.401,62.052C192.808,61.851 192.248,61.749 191.716,61.749C191.117,61.749 190.626,61.887 190.249,62.162C189.869,62.436 189.681,62.827 189.681,63.334C189.681,63.935 190.177,64.463 191.167,64.918C191.9,65.256 192.384,65.492 192.623,65.622C192.859,65.754 193.099,65.935 193.343,66.165C193.588,66.395 193.784,66.666 193.932,66.979C194.081,67.291 194.155,67.642 194.155,68.032C194.155,68.998 193.829,69.749 193.179,70.282C192.529,70.815 191.761,71.081 190.878,71.081C190.025,71.081 189.275,70.913 188.632,70.575L188.873,69.581C189.628,69.923 190.287,70.095 190.851,70.095C191.507,70.095 192.035,69.925 192.431,69.584C192.828,69.245 193.027,68.776 193.027,68.179C193.027,67.739 192.898,67.364 192.64,67.056C192.38,66.748 191.906,66.435 191.208,66.116C190.496,65.788 190.035,65.563 189.826,65.444C189.617,65.324 189.408,65.158 189.203,64.947C188.996,64.736 188.837,64.498 188.724,64.237C188.611,63.972 188.554,63.686 188.554,63.376C188.554,62.554 188.851,61.913 189.443,61.454C190.033,60.994 190.783,60.763 191.687,60.763C192.349,60.763 193.007,60.865 193.663,61.066L193.401,62.052Z" style="fill:rgb(35,31,32);fill-rule:nonzero;"/>
                        <path d="M205.319,70.271C204.54,70.811 203.635,71.081 202.606,71.081C201.321,71.081 200.342,70.639 199.674,69.757C199.004,68.874 198.67,67.596 198.67,65.926C198.67,64.311 198.995,63.046 199.643,62.133C200.29,61.22 201.278,60.763 202.606,60.763C203.086,60.763 203.559,60.825 204.03,60.947C204.499,61.069 204.878,61.231 205.165,61.432L204.784,62.341C204.122,61.965 203.395,61.778 202.606,61.778C201.692,61.778 201.01,62.11 200.565,62.774C200.118,63.439 199.895,64.489 199.895,65.926C199.895,68.687 200.799,70.067 202.606,70.067C203.372,70.067 204.157,69.832 204.96,69.363L205.319,70.271Z" style="fill:rgb(35,31,32);fill-rule:nonzero;"/>
                        <path d="M215.778,70.891L214.622,70.891L214.622,65.961L211.221,65.961L211.221,70.891L210.067,70.891L210.067,60.954L211.221,60.954L211.221,64.947L214.622,64.947L214.622,60.954L215.778,60.954L215.778,70.891Z" style="fill:rgb(35,31,32);fill-rule:nonzero;"/>
                        <path d="M226.598,67.764C226.598,68.914 226.364,69.755 225.899,70.286C225.43,70.816 224.719,71.081 223.766,71.081C221.846,71.081 220.885,69.985 220.885,67.792L220.885,60.954L222.042,60.954L222.042,67.687C222.042,69.274 222.616,70.067 223.766,70.067C224.346,70.067 224.768,69.879 225.04,69.503C225.307,69.128 225.444,68.518 225.444,67.672L225.444,60.954L226.598,60.954L226.598,67.764Z" style="fill:rgb(35,31,32);fill-rule:nonzero;"/>
                        <path d="M237.444,70.891L232.036,70.891L232.036,60.954L233.19,60.954L233.19,69.884L237.444,69.884L237.444,70.891Z" style="fill:rgb(35,31,32);fill-rule:nonzero;"/>
                        <path d="M248.045,70.891L242.854,70.891L242.854,60.954L248.003,60.954L248.003,61.96L244.01,61.96L244.01,65.039L247.848,65.039L247.848,66.045L244.01,66.045L244.01,69.884L248.045,69.884L248.045,70.891Z" style="fill:rgb(35,31,32);fill-rule:nonzero;"/>
                        <path d="M73.859,92.907L71.899,92.907L71.899,91.045L73.761,91.045L73.761,90.555L71.899,90.555L71.899,89.064L73.838,89.064L73.838,88.574L71.339,88.574L71.339,93.397L73.859,93.397L73.859,92.907Z" style="fill:rgb(147,149,152);fill-rule:nonzero;"/>
                        <path d="M78.851,88.574L78.291,88.574L78.291,90.513L76.639,90.513L76.639,88.574L76.079,88.574L76.079,93.397L76.639,93.397L76.639,91.003L78.291,91.003L78.291,93.397L78.851,93.397L78.851,88.574Z" style="fill:rgb(147,149,152);fill-rule:nonzero;"/>
                        <path d="M82.737,91.087C83.08,91.003 83.346,90.849 83.535,90.618C83.731,90.394 83.829,90.128 83.829,89.834C83.829,89.442 83.696,89.127 83.43,88.91C83.164,88.686 82.8,88.574 82.345,88.574L80.98,88.574L80.98,93.397L81.54,93.397L81.54,91.206L82.163,91.206L83.577,93.397L84.277,93.397L82.737,91.087ZM81.54,89.064L82.261,89.064C82.919,89.064 83.248,89.33 83.248,89.869C83.248,90.114 83.157,90.317 82.968,90.478C82.786,90.639 82.548,90.716 82.247,90.716L81.54,90.716L81.54,89.064Z" style="fill:rgb(147,149,152);fill-rule:nonzero;"/>
                        <path d="M88.652,88.574L88.092,88.574L88.092,91.836C88.092,92.242 88.029,92.543 87.896,92.725C87.763,92.907 87.56,92.998 87.28,92.998C86.72,92.998 86.44,92.613 86.44,91.843L86.44,88.574L85.88,88.574L85.88,91.892C85.88,92.956 86.349,93.488 87.28,93.488C87.742,93.488 88.085,93.362 88.309,93.103C88.54,92.844 88.652,92.438 88.652,91.878L88.652,88.574Z" style="fill:rgb(147,149,152);fill-rule:nonzero;"/>
                        <path d="M93.623,88.574L93.07,88.574L93.07,92.347L91.334,88.574L90.711,88.574L90.711,93.397L91.271,93.397L91.271,89.589L93,93.397L93.623,93.397L93.623,88.574Z" style="fill:rgb(147,149,152);fill-rule:nonzero;"/>
                        <path d="M98.622,91.115L97.194,91.115L97.194,91.598L98.062,91.598L98.062,92.788C97.894,92.928 97.642,92.998 97.313,92.998C96.438,92.998 95.997,92.326 95.997,90.989C95.997,90.289 96.109,89.785 96.326,89.456C96.543,89.134 96.872,88.973 97.313,88.973C97.698,88.973 98.048,89.064 98.37,89.246L98.552,88.805C98.412,88.707 98.23,88.63 98.006,88.574C97.775,88.511 97.544,88.483 97.313,88.483C96.669,88.483 96.186,88.7 95.871,89.141C95.556,89.582 95.402,90.198 95.402,90.989C95.402,91.808 95.563,92.424 95.885,92.851C96.214,93.278 96.683,93.488 97.313,93.488C97.789,93.488 98.23,93.348 98.622,93.054L98.622,91.115Z" style="fill:rgb(147,149,152);fill-rule:nonzero;"/>
                        <path d="M108.425,91.115L106.997,91.115L106.997,91.598L107.865,91.598L107.865,92.788C107.697,92.928 107.445,92.998 107.116,92.998C106.241,92.998 105.8,92.326 105.8,90.989C105.8,90.289 105.912,89.785 106.129,89.456C106.346,89.134 106.675,88.973 107.116,88.973C107.501,88.973 107.851,89.064 108.173,89.246L108.355,88.805C108.215,88.707 108.033,88.63 107.809,88.574C107.578,88.511 107.347,88.483 107.116,88.483C106.472,88.483 105.989,88.7 105.674,89.141C105.359,89.582 105.205,90.198 105.205,90.989C105.205,91.808 105.366,92.424 105.688,92.851C106.017,93.278 106.486,93.488 107.116,93.488C107.592,93.488 108.033,93.348 108.425,93.054L108.425,91.115Z" style="fill:rgb(147,149,152);fill-rule:nonzero;"/>
                        <path d="M113.157,88.574L112.597,88.574L112.597,91.836C112.597,92.242 112.534,92.543 112.401,92.725C112.268,92.907 112.065,92.998 111.785,92.998C111.225,92.998 110.945,92.613 110.945,91.843L110.945,88.574L110.385,88.574L110.385,91.892C110.385,92.956 110.854,93.488 111.785,93.488C112.247,93.488 112.59,93.362 112.814,93.103C113.045,92.844 113.157,92.438 113.157,91.878L113.157,88.574ZM112.184,87.489C112.114,87.559 112.079,87.65 112.079,87.755C112.079,87.853 112.114,87.937 112.191,88.014C112.261,88.091 112.345,88.126 112.45,88.126C112.548,88.126 112.632,88.091 112.702,88.014C112.772,87.937 112.807,87.853 112.807,87.755C112.807,87.65 112.772,87.559 112.709,87.489C112.639,87.419 112.555,87.384 112.45,87.384C112.345,87.384 112.254,87.419 112.184,87.489ZM110.84,87.489C110.763,87.559 110.728,87.65 110.728,87.755C110.728,87.853 110.763,87.937 110.84,88.014C110.91,88.091 111.001,88.126 111.099,88.126C111.197,88.126 111.288,88.091 111.358,88.014C111.428,87.944 111.463,87.86 111.463,87.755C111.463,87.65 111.428,87.559 111.358,87.489C111.288,87.419 111.204,87.384 111.099,87.384C110.994,87.384 110.91,87.419 110.84,87.489Z" style="fill:rgb(147,149,152);fill-rule:nonzero;"/>
                        <path d="M118.073,92.907L116.008,92.907L116.008,88.574L115.448,88.574L115.448,93.397L118.073,93.397L118.073,92.907Z" style="fill:rgb(147,149,152);fill-rule:nonzero;"/>
                        <path d="M123.345,88.574L119.81,88.574L119.81,89.029L121.301,89.029L121.301,93.397L121.861,93.397L121.861,89.029L123.345,89.029L123.345,88.574Z" style="fill:rgb(147,149,152);fill-rule:nonzero;"/>
                        <path d="M127.546,92.907L126.748,92.907L126.748,89.064L127.546,89.064L127.546,88.574L125.355,88.574L125.355,89.064L126.188,89.064L126.188,92.907L125.355,92.907L125.355,93.397L127.546,93.397L127.546,92.907Z" style="fill:rgb(147,149,152);fill-rule:nonzero;"/>
                        <path d="M132.931,91.115L131.503,91.115L131.503,91.598L132.371,91.598L132.371,92.788C132.203,92.928 131.951,92.998 131.622,92.998C130.747,92.998 130.306,92.326 130.306,90.989C130.306,90.289 130.418,89.785 130.635,89.456C130.852,89.134 131.181,88.973 131.622,88.973C132.007,88.973 132.357,89.064 132.679,89.246L132.861,88.805C132.721,88.707 132.539,88.63 132.315,88.574C132.084,88.511 131.853,88.483 131.622,88.483C130.978,88.483 130.495,88.7 130.18,89.141C129.865,89.582 129.711,90.198 129.711,90.989C129.711,91.808 129.872,92.424 130.194,92.851C130.523,93.278 130.992,93.488 131.622,93.488C132.098,93.488 132.539,93.348 132.931,93.054L132.931,91.115Z" style="fill:rgb(147,149,152);fill-rule:nonzero;"/>
                        <path d="M141.76,90.737C142.026,90.66 142.236,90.527 142.383,90.352C142.537,90.177 142.614,89.974 142.614,89.743C142.614,89.372 142.481,89.085 142.222,88.882C141.956,88.679 141.592,88.574 141.13,88.574L139.793,88.574L139.793,93.397L141.165,93.397C141.613,93.397 141.991,93.264 142.313,93.005C142.628,92.746 142.789,92.396 142.789,91.962C142.789,91.661 142.698,91.402 142.516,91.192C142.334,90.975 142.082,90.828 141.76,90.751L141.76,90.737ZM140.353,89.064L141.046,89.064C141.368,89.064 141.62,89.12 141.788,89.239C141.956,89.365 142.04,89.533 142.04,89.757C142.04,90.247 141.697,90.492 141.011,90.492L140.353,90.492L140.353,89.064ZM140.353,90.982L140.948,90.982C141.354,90.982 141.662,91.066 141.879,91.234C142.089,91.409 142.201,91.647 142.201,91.962C142.201,92.256 142.089,92.487 141.872,92.655C141.655,92.823 141.361,92.907 140.99,92.907L140.353,92.907L140.353,90.982Z" style="fill:rgb(147,149,152);fill-rule:nonzero;"/>
                        <path d="M147.151,92.907L146.353,92.907L146.353,89.064L147.151,89.064L147.151,88.574L144.96,88.574L144.96,89.064L145.793,89.064L145.793,92.907L144.96,92.907L144.96,93.397L147.151,93.397L147.151,92.907Z" style="fill:rgb(147,149,152);fill-rule:nonzero;"/>
                        <path d="M152.136,88.63C151.821,88.532 151.499,88.483 151.177,88.483C150.736,88.483 150.372,88.595 150.085,88.819C149.798,89.043 149.658,89.351 149.658,89.75C149.658,89.897 149.686,90.037 149.742,90.17C149.791,90.296 149.868,90.408 149.973,90.513C150.071,90.618 150.169,90.695 150.274,90.751C150.372,90.814 150.596,90.919 150.946,91.08C151.282,91.234 151.513,91.388 151.639,91.535C151.765,91.682 151.828,91.864 151.828,92.081C151.828,92.368 151.73,92.599 151.541,92.76C151.345,92.928 151.093,93.012 150.771,93.012C150.498,93.012 150.176,92.928 149.812,92.76L149.693,93.243C150.008,93.404 150.372,93.488 150.785,93.488C151.212,93.488 151.583,93.362 151.898,93.103C152.213,92.844 152.374,92.48 152.374,92.011C152.374,91.822 152.339,91.647 152.269,91.5C152.192,91.346 152.101,91.213 151.982,91.101C151.863,90.989 151.744,90.905 151.632,90.842C151.513,90.779 151.282,90.66 150.925,90.499C150.442,90.275 150.204,90.023 150.204,89.729C150.204,89.484 150.295,89.295 150.477,89.162C150.659,89.029 150.897,88.959 151.191,88.959C151.45,88.959 151.723,89.008 152.01,89.106L152.136,88.63Z" style="fill:rgb(147,149,152);fill-rule:nonzero;"/>
                        <path d="M162.036,92.907L160.006,92.907C160.622,92.228 161.028,91.759 161.245,91.5C161.455,91.241 161.63,90.961 161.763,90.681C161.903,90.394 161.966,90.107 161.966,89.82C161.966,89.414 161.833,89.092 161.574,88.847C161.308,88.602 160.965,88.483 160.531,88.483C160.153,88.483 159.796,88.553 159.453,88.7L159.53,89.183C159.908,89.043 160.216,88.973 160.44,88.973C160.734,88.973 160.965,89.05 161.126,89.204C161.287,89.358 161.371,89.575 161.371,89.841C161.371,90.121 161.308,90.401 161.182,90.681C161.056,90.961 160.895,91.227 160.692,91.486C160.489,91.738 160.055,92.242 159.383,92.991L159.383,93.397L162.036,93.397L162.036,92.907Z" style="fill:rgb(147,149,152);fill-rule:nonzero;"/>
                        <path d="M164.488,89.155C164.222,89.61 164.089,90.219 164.089,90.989C164.089,91.78 164.222,92.396 164.502,92.83C164.775,93.271 165.167,93.488 165.678,93.488C166.203,93.488 166.602,93.264 166.868,92.816C167.134,92.361 167.267,91.752 167.267,90.989C167.267,90.191 167.127,89.582 166.854,89.141C166.581,88.7 166.189,88.483 165.678,88.483C165.153,88.483 164.754,88.707 164.488,89.155ZM164.929,92.515C164.768,92.193 164.684,91.682 164.684,90.989C164.684,90.303 164.768,89.799 164.929,89.47C165.097,89.141 165.342,88.98 165.678,88.98C166.014,88.98 166.266,89.141 166.427,89.456C166.588,89.778 166.672,90.289 166.672,90.989C166.672,91.689 166.588,92.2 166.427,92.515C166.266,92.837 166.014,92.998 165.678,92.998C165.342,92.998 165.09,92.837 164.929,92.515ZM165.3,90.625C165.209,90.723 165.16,90.842 165.16,90.989C165.16,91.136 165.209,91.262 165.307,91.367C165.405,91.472 165.524,91.528 165.664,91.528C165.804,91.528 165.923,91.472 166.028,91.367C166.126,91.262 166.175,91.136 166.175,90.989C166.175,90.842 166.126,90.723 166.028,90.625C165.93,90.527 165.804,90.478 165.664,90.478C165.517,90.478 165.398,90.527 165.3,90.625Z" style="fill:rgb(147,149,152);fill-rule:nonzero;"/>
                        <path d="M171.839,92.907L169.809,92.907C170.425,92.228 170.831,91.759 171.048,91.5C171.258,91.241 171.433,90.961 171.566,90.681C171.706,90.394 171.769,90.107 171.769,89.82C171.769,89.414 171.636,89.092 171.377,88.847C171.111,88.602 170.768,88.483 170.334,88.483C169.956,88.483 169.599,88.553 169.256,88.7L169.333,89.183C169.711,89.043 170.019,88.973 170.243,88.973C170.537,88.973 170.768,89.05 170.929,89.204C171.09,89.358 171.174,89.575 171.174,89.841C171.174,90.121 171.111,90.401 170.985,90.681C170.859,90.961 170.698,91.227 170.495,91.486C170.292,91.738 169.858,92.242 169.186,92.991L169.186,93.397L171.839,93.397L171.839,92.907Z" style="fill:rgb(147,149,152);fill-rule:nonzero;"/>
                        <path d="M174.871,89.064L176.586,89.064L176.586,88.574L174.381,88.574L174.381,90.877L174.717,91.031C174.906,90.954 175.102,90.919 175.298,90.919C175.564,90.919 175.788,91.003 175.956,91.178C176.131,91.353 176.215,91.598 176.215,91.92C176.215,92.263 176.124,92.522 175.942,92.711C175.76,92.9 175.522,92.998 175.228,92.998C174.899,92.998 174.577,92.935 174.269,92.802L174.157,93.278C174.444,93.418 174.794,93.488 175.214,93.488C175.655,93.488 176.033,93.334 176.341,93.033C176.649,92.732 176.803,92.361 176.803,91.92C176.803,91.5 176.67,91.157 176.404,90.877C176.138,90.597 175.781,90.457 175.326,90.457C175.179,90.457 175.025,90.478 174.871,90.52L174.871,89.064Z" style="fill:rgb(147,149,152);fill-rule:nonzero;"/>
                        <path d="M0.004,91.343L68.522,91.343" style="fill:none;stroke:rgb(147,149,152);stroke-width:0.5px;"/>
                        <path d="M179.536,91.343L248.054,91.343" style="fill:none;stroke:rgb(147,149,152);stroke-width:0.5px;"/>
                    </g>
                </g>
            </g>
        </g>
    </g>
</svg>
