<?xml version="1.0" encoding="UTF-8" standalone="no"?>
<!DOCTYPE svg PUBLIC "-//W3C//DTD SVG 1.1//EN" "http://www.w3.org/Graphics/SVG/1.1/DTD/svg11.dtd">
<svg width="100%" height="100%" viewBox="0 0 1080 1080" version="1.1" xmlns="http://www.w3.org/2000/svg" xmlns:xlink="http://www.w3.org/1999/xlink" xml:space="preserve" xmlns:serif="http://www.serif.com/" style="fill-rule:evenodd;clip-rule:evenodd;stroke-linejoin:round;stroke-miterlimit:2;">
    <g transform="matrix(2.39917,0,0,2.39917,-389.531,-338.255)">
        <g transform="matrix(1,0,0,1,17.5563,57.637)">
            <ellipse cx="369.647" cy="322.254" rx="161.026" ry="149.065" style="fill:rgb(154,210,207);"/>
        </g>
        <path d="M508.533,327.432L261.99,381.873L311.494,401.904L331.652,454.375L371.69,425.234L400.016,435.538L508.533,327.432Z" style="fill:white;"/>
        <g transform="matrix(0.235924,0,0,0.235924,387.347,365.528)">
            <g transform="matrix(1,0,0,1,-952,-823)">
                <g transform="matrix(0.1,0,0,-0.1,0,1646)">
                    <path d="M8057,15581C7963,15546 7910,15482 7910,15402C7910,15313 7956,15260 8117,15164C8219,15103 8240,15079 8240,15021C8240,14990 8233,14975 8209,14951C8180,14922 8174,14920 8102,14920C8060,14920 8007,14927 7985,14935C7918,14959 7910,14956 7910,14907L7910,14863L7968,14851C8101,14823 8240,14841 8306,14894C8396,14966 8406,15106 8326,15184C8294,15216 8117,15330 8100,15330C8095,15330 8080,15345 8066,15363C8007,15441 8055,15510 8167,15510C8200,15510 8244,15503 8263,15495C8322,15471 8330,15474 8330,15523L8330,15566L8253,15582C8154,15603 8116,15603 8057,15581Z" style="fill-rule:nonzero;"/>
                    <path d="M8750,15581C8650,15554 8607,15526 8560,15460C8521,15405 8513,15386 8495,15304C8465,15171 8495,15044 8579,14949C8660,14856 8807,14818 8965,14848C9095,14872 9100,14875 9100,14926C9100,14968 9086,14983 9066,14963C9043,14940 8958,14920 8885,14920C8809,14921 8802,14923 8751,14958C8714,14983 8687,15012 8666,15050C8638,15101 8636,15111 8635,15210C8635,15294 8639,15325 8655,15360C8666,15385 8677,15407 8680,15410C8683,15413 8694,15428 8703,15443C8731,15487 8797,15510 8893,15510C8939,15510 8993,15503 9015,15495C9037,15487 9065,15481 9078,15480C9097,15480 9100,15485 9100,15524L9100,15567L9033,15580C8925,15601 8823,15601 8750,15581Z" style="fill-rule:nonzero;"/>
                    <path d="M4410,15563C4405,15486 4402,14933 4406,14903C4412,14860 4412,14860 4455,14860C4485,14860 4500,14865 4504,14876C4507,14885 4510,15002 4510,15136C4510,15421 4517,15439 4569,15288C4587,15237 4612,15166 4626,15130C4639,15094 4650,15059 4650,15052C4650,15045 4654,15032 4659,15022C4665,15013 4676,14984 4686,14958L4703,14910L4806,14910L4834,14993C4849,15038 4866,15085 4871,15098C4894,15154 4899,15168 4916,15220C4926,15250 4938,15279 4942,15285C4946,15290 4950,15304 4950,15316C4950,15346 4990,15396 5001,15379C5005,15372 5009,15258 5009,15125C5009,14993 5009,14879 5010,14873C5010,14864 5028,14860 5065,14860L5120,14860L5120,15570L4962,15570L4947,15533C4939,15512 4927,15479 4922,15460C4901,15393 4853,15259 4846,15253C4843,15250 4840,15236 4840,15224C4840,15211 4836,15199 4831,15195C4826,15192 4819,15176 4815,15160C4805,15116 4779,15067 4770,15077C4766,15081 4751,15118 4736,15158C4722,15197 4699,15260 4685,15298C4671,15335 4660,15372 4660,15381C4660,15389 4656,15400 4652,15406C4647,15411 4635,15438 4626,15465C4585,15581 4599,15570 4499,15570C4450,15570 4410,15567 4410,15563Z" style="fill-rule:nonzero;"/>
                    <path d="M5322,15218L5325,14865L5553,14862L5780,14860L5780,14884C5780,14897 5783,14915 5786,14924C5791,14938 5772,14940 5628,14942L5465,14945L5459,15169L5695,15175L5698,15218L5701,15260L5459,15260L5462,15373L5465,15485L5613,15488L5760,15491L5760,15570L5320,15570L5322,15218Z" style="fill-rule:nonzero;"/>
                    <path d="M5930,15538C5929,15405 5929,14991 5929,14933L5930,14860L6060,14860L6060,15570L5930,15570L5930,15538Z" style="fill-rule:nonzero;"/>
                    <path d="M6267,15563C6263,15560 6260,15400 6260,15208L6260,14860L6370,14860L6370,15089C6370,15279 6372,15320 6385,15330C6397,15340 6401,15339 6407,15324C6414,15306 6548,15104 6656,14950L6716,14865L6840,14859L6840,15570L6740,15570L6740,15335C6740,15113 6739,15100 6721,15100C6709,15100 6684,15128 6649,15183C6619,15228 6548,15334 6491,15418L6387,15570L6330,15570C6299,15570 6270,15567 6267,15563Z" style="fill-rule:nonzero;"/>
                    <path d="M7040,15570L7040,14860L7268,14862L7495,14865L7495,14935L7175,14945L7169,15169L7415,15175L7415,15255L7175,15265L7175,15485L7325,15488L7476,15490L7477,15530L7479,15570L7040,15570Z" style="fill-rule:nonzero;"/>
                    <path d="M9260,15570L9260,14860L9390,14860L9392,15028L9395,15195L9544,15198C9626,15199 9697,15197 9702,15192C9707,15187 9712,15111 9713,15024L9715,14865L9783,14862L9850,14859L9850,15183C9850,15362 9847,15522 9844,15539C9838,15569 9837,15570 9779,15570C9708,15570 9711,15576 9707,15405L9705,15285L9395,15285L9392,15428L9389,15570L9260,15570Z" style="fill-rule:nonzero;"/>
                    <path d="M10030,15570L10030,15003L10055,14966C10069,14946 10080,14926 10080,14922C10081,14905 10173,14861 10236,14847C10343,14823 10438,14842 10504,14901C10570,14959 10573,14972 10578,15288L10582,15571L10524,15568L10465,15565L10460,15290C10455,14993 10453,14984 10396,14938C10365,14913 10267,14914 10225,14940C10161,14980 10158,15002 10150,15543C10150,15569 10149,15570 10090,15570L10030,15570Z" style="fill-rule:nonzero;"/>
                    <path d="M10780,15570L10780,14860L11010,14860C11260,14860 11260,14860 11246,14915L11240,14940L11077,14942L10915,14945L10912,15258L10910,15570L10780,15570Z" style="fill-rule:nonzero;"/>
                    <path d="M11360,15570L11360,14860L11588,14862L11815,14865L11821,14939L11495,14945L11489,15169L11735,15175L11735,15255L11495,15265L11495,15485L11642,15488C11800,15491 11807,15494 11794,15546L11788,15570L11360,15570Z" style="fill-rule:nonzero;"/>
                    <path d="M12257,15563C12253,15560 12250,15542 12250,15523L12250,15490L12408,15490C12494,15490 12571,15486 12578,15481C12588,15475 12570,15442 12507,15349C12386,15169 12359,15132 12312,15068C12289,15037 12270,15006 12270,15000C12270,14995 12267,14990 12263,14990C12249,14990 12230,14937 12230,14898L12230,14860L12750,14860L12750,14940L12603,14941C12521,14942 12445,14941 12432,14940C12420,14939 12408,14945 12405,14953C12400,14966 12475,15091 12492,15098C12496,15100 12500,15106 12500,15110C12500,15118 12615,15286 12715,15424C12744,15464 12750,15481 12750,15521L12750,15570L12507,15570C12373,15570 12260,15567 12257,15563Z" style="fill-rule:nonzero;"/>
                    <path d="M12920,15297C12920,15025 12920,15024 12945,14973C12977,14910 13030,14872 13119,14848C13180,14832 13256,14832 13285,14848C13290,14851 13304,14855 13317,14856C13359,14861 13419,14912 13445,14967C13470,15018 13470,15021 13470,15294L13470,15570L13360,15570L13360,15318C13360,15164 13356,15049 13349,15025C13343,15003 13323,14971 13303,14953C13272,14923 13262,14920 13210,14920C13142,14920 13102,14939 13075,14984C13058,15012 13056,15044 13052,15293L13048,15570L12920,15570L12920,15297Z" style="fill-rule:nonzero;"/>
                    <path d="M13670,15570L13670,14860L13714,14860C13739,14860 13762,14865 13765,14870C13768,14876 13771,14993 13770,15131C13769,15361 13771,15381 13786,15378C13797,15376 13812,15352 13825,15315C13837,15282 13849,15248 13852,15240C13856,15232 13866,15200 13875,15170C13896,15104 13903,15086 13922,15040C13930,15021 13943,14984 13951,14958L13964,14910L14068,14910L14085,14958C14095,14984 14106,15014 14110,15025C14120,15049 14163,15168 14184,15230C14224,15348 14250,15397 14263,15383C14267,15380 14270,15260 14270,15118L14270,14859L14328,14862L14385,14865L14388,15218L14390,15570L14310,15570C14218,15570 14228,15580 14181,15440C14163,15388 14145,15337 14139,15328C14134,15318 14130,15304 14130,15296C14130,15289 14123,15269 14115,15254C14107,15238 14100,15217 14100,15208C14100,15199 14096,15188 14090,15185C14085,15182 14080,15171 14080,15161C14080,15152 14072,15127 14062,15106C14041,15063 14031,15068 14007,15140C13998,15165 13973,15237 13950,15300C13927,15363 13906,15426 13903,15440C13900,15454 13894,15470 13890,15475C13887,15481 13878,15504 13870,15528L13857,15570L13670,15570Z" style="fill-rule:nonzero;"/>
                    <path d="M2895,13693C2886,13666 2874,13637 2869,13628C2864,13618 2860,13600 2860,13587C2860,13574 2856,13560 2852,13555C2848,13549 2836,13518 2826,13485C2816,13452 2804,13417 2799,13408C2794,13398 2790,13385 2790,13378C2790,13371 2779,13336 2766,13300C2753,13264 2730,13195 2715,13145C2699,13096 2683,13051 2678,13046C2674,13040 2670,13027 2670,13017C2670,13006 2644,12918 2611,12821C2579,12724 2529,12571 2500,12480C2471,12389 2444,12306 2440,12295C2436,12284 2425,12250 2416,12220C2406,12190 2395,12156 2391,12145C2386,12134 2375,12100 2366,12070C2356,12040 2345,12006 2340,11995C2336,11984 2320,11935 2305,11885C2291,11836 2275,11786 2271,11775C2266,11764 2254,11728 2244,11695C2234,11662 2222,11631 2218,11626C2214,11620 2210,11607 2210,11595C2210,11584 2201,11550 2189,11520C2178,11490 2166,11456 2163,11445C2161,11434 2155,11416 2150,11405C2145,11394 2139,11374 2137,11360C2132,11339 2104,11252 2080,11185C2076,11174 2065,11138 2054,11105C2044,11072 2033,11038 2029,11030C2016,11000 1998,10938 2002,10934C2008,10929 2811,10928 2817,10934C2820,10936 2825,10953 2830,10972C2835,10990 2850,11048 2865,11100C2879,11152 2895,11213 2900,11235C2905,11257 2917,11300 2926,11330C2935,11360 2944,11399 2947,11417C2950,11438 2959,11450 2973,11454C3001,11461 3610,11459 3759,11451L3873,11445L3886,11400C3893,11375 3911,11308 3925,11250C3940,11192 3956,11132 3961,11115C3965,11099 3977,11054 3986,11015C3996,10977 4008,10939 4013,10932C4021,10923 4111,10920 4429,10922L4835,10925L4832,10955C4830,10972 4825,10994 4820,11005C4816,11016 4800,11063 4785,11110C4770,11157 4747,11224 4735,11260C4723,11296 4673,11447 4625,11595C4577,11744 4534,11874 4530,11885C4525,11896 4509,11943 4494,11990C4479,12037 4464,12084 4459,12095C4455,12106 4442,12146 4430,12184C4419,12223 4401,12272 4391,12294C4380,12317 4344,12423 4310,12530C4276,12637 4244,12734 4240,12745C4229,12772 4199,12863 4095,13185C4047,13334 3997,13484 3984,13520C3971,13556 3960,13593 3960,13602C3960,13611 3956,13622 3950,13625C3945,13628 3940,13640 3940,13650C3940,13661 3932,13685 3923,13705L3906,13740L2912,13740L2895,13693ZM3434,13218C3437,13205 3441,13182 3443,13165C3446,13149 3457,13099 3469,13056C3480,13012 3490,12967 3490,12954C3490,12941 3494,12929 3499,12926C3504,12923 3510,12906 3512,12888C3518,12849 3539,12764 3551,12735C3555,12724 3561,12704 3563,12690C3566,12676 3575,12638 3585,12605C3595,12572 3605,12528 3607,12507C3610,12487 3616,12467 3621,12464C3626,12461 3630,12450 3630,12438C3630,12427 3637,12397 3645,12371C3652,12346 3664,12305 3670,12280C3676,12255 3686,12219 3692,12200C3713,12133 3718,12091 3705,12080C3697,12073 3592,12071 3409,12072L3125,12075L3127,12100C3129,12126 3137,12163 3165,12265C3175,12298 3184,12340 3187,12358C3190,12376 3196,12393 3201,12396C3206,12399 3210,12415 3210,12431C3210,12447 3217,12477 3225,12497C3233,12516 3240,12543 3240,12556C3240,12568 3244,12581 3249,12584C3253,12587 3260,12609 3263,12632C3267,12656 3277,12700 3286,12730C3295,12760 3306,12803 3310,12825C3315,12847 3326,12894 3335,12930C3351,12997 3361,13044 3380,13140C3392,13199 3408,13240 3421,13240C3426,13240 3432,13230 3434,13218Z" style="fill-rule:nonzero;"/>
                    <path d="M7803,13713C7793,13709 7790,13421 7790,12320C7790,11064 7791,10932 7806,10926C7815,10923 7983,10920 8180,10920C8526,10920 8540,10921 8550,10939C8565,10968 8564,13688 8549,13707C8540,13717 8466,13720 8176,13719C7978,13719 7809,13716 7803,13713Z" style="fill-rule:nonzero;"/>
                    <path d="M8953,13713C8943,13709 8940,13638 8940,13405L8940,13103L8973,13096C8990,13092 9138,13091 9300,13094C9496,13097 9599,13095 9607,13088C9617,13080 9620,12850 9620,11999L9620,10920L10380,10920L10380,11999C10380,12852 10383,13081 10393,13087C10399,13091 10551,13096 10729,13096C10985,13097 11054,13100 11060,13111C11072,13130 11071,13679 11059,13701C11050,13719 11013,13720 10007,13719C9434,13719 8959,13716 8953,13713Z" style="fill-rule:nonzero;"/>
                    <path d="M11475,13711C11466,13696 11470,11902 11480,11820C11499,11652 11545,11489 11595,11410C11609,11388 11620,11368 11620,11366C11620,11363 11639,11333 11663,11298C11807,11086 12058,10942 12371,10891C12452,10878 12899,10876 12949,10889C12969,10894 13012,10904 13045,10911C13278,10957 13476,11070 13628,11243C13667,11288 13760,11436 13760,11454C13760,11460 13764,11470 13769,11476C13796,11505 13851,11722 13865,11855C13869,11894 13869,12327 13865,12818L13857,13710L13123,13710L13117,13403C13113,13233 13110,12839 13110,12525C13110,11934 13106,11864 13065,11750C13030,11652 12965,11578 12882,11543C12781,11500 12682,11491 12565,11513C12434,11538 12358,11595 12304,11706C12239,11842 12240,11820 12240,12811L12240,13708L12218,13714C12180,13724 11482,13721 11475,13711Z" style="fill-rule:nonzero;"/>
                    <path d="M5147,13318C5145,13102 5143,12477 5142,11930C5141,11155 5143,10934 5153,10928C5159,10924 5439,10920 5774,10920C6267,10920 6403,10923 6489,10935C6606,10952 6684,10968 6715,10981C6726,10986 6760,10999 6790,11010C6985,11085 7143,11221 7229,11390C7284,11497 7294,11553 7294,11735C7294,11908 7289,11941 7246,12042C7216,12111 7146,12203 7090,12244C7028,12290 6901,12354 6853,12365C6835,12368 6820,12375 6820,12378C6820,12387 6878,12420 6894,12420C6910,12420 7010,12487 7057,12530C7138,12604 7206,12727 7230,12845C7248,12929 7248,13131 7230,13198C7175,13404 7013,13563 6785,13635C6758,13643 6726,13655 6715,13660C6704,13665 6677,13671 6655,13674C6633,13677 6588,13684 6555,13691C6515,13699 6276,13704 5823,13707L5151,13711L5147,13318ZM6100,13136C6283,13131 6335,13116 6404,13050L6455,13001L6455,12897C6455,12800 6453,12791 6428,12758C6389,12708 6317,12663 6252,12649C6220,12642 6128,12636 6045,12636L5895,12635L5893,12879C5892,13026 5895,13129 5900,13136C5906,13142 5920,13146 5933,13144C5945,13142 6020,13139 6100,13136ZM6231,12069C6422,12044 6513,11955 6514,11795C6515,11571 6386,11493 6030,11502L5895,11505L5892,11780C5891,11931 5892,12060 5895,12067C5901,12084 6112,12085 6231,12069Z" style="fill-rule:nonzero;"/>
                    <path d="M14455,12324C14449,11161 14450,10936 14461,10929C14469,10924 14639,10921 14840,10923L15205,10925L15201,11410C15199,11677 15200,11905 15204,11918C15211,11939 15217,11940 15304,11940C15389,11940 15399,11938 15414,11918C15432,11893 15530,11730 15530,11726C15530,11724 15573,11652 15625,11565C15677,11479 15720,11406 15720,11404C15720,11401 15736,11375 15755,11345C15774,11315 15806,11260 15826,11223C15846,11186 15869,11148 15876,11139C15884,11131 15890,11120 15890,11116C15890,11110 15932,11039 15968,10984C15975,10974 15983,10957 15986,10948C15992,10931 16020,10930 16379,10929C16758,10928 16832,10929 16838,10935C16840,10937 16557,11365 16454,11515C16447,11526 16407,11584 16365,11643C16324,11703 16290,11754 16290,11756C16290,11759 16285,11766 16280,11773C16257,11799 16070,12083 16070,12091C16070,12096 16066,12100 16060,12100C16041,12100 16050,12142 16073,12161C16085,12171 16099,12179 16103,12180C16136,12181 16323,12354 16368,12425C16382,12447 16396,12467 16399,12470C16411,12480 16460,12585 16460,12600C16460,12609 16464,12620 16469,12625C16487,12644 16503,12745 16507,12865C16516,13102 16448,13296 16308,13439C16258,13490 16153,13561 16083,13591C16057,13602 16022,13617 16005,13624C15971,13639 15889,13661 15845,13667C15829,13669 15806,13675 15795,13680C15756,13697 15640,13702 15054,13706L14463,13711L14455,12324ZM15540,13124C15623,13103 15680,13063 15718,13000C15748,12949 15750,12941 15749,12850C15749,12742 15734,12694 15679,12625C15646,12583 15574,12541 15505,12524C15489,12520 15414,12516 15340,12516L15205,12515L15202,12819C15200,13050 15203,13126 15212,13138C15223,13150 15245,13151 15355,13145C15426,13142 15510,13132 15540,13124Z" style="fill-rule:nonzero;"/>
                    <path d="M14610,9875C14580,9868 14517,9855 14470,9845C14423,9835 14376,9824 14365,9819C14354,9815 14329,9809 14310,9806C14225,9793 14150,9776 14150,9768C14150,9764 14137,9760 14122,9760C14107,9760 14054,9751 14004,9739C13917,9719 13872,9709 13788,9691C13764,9686 13711,9675 13670,9666C13629,9657 13577,9645 13555,9639C13503,9626 13385,9601 13340,9594C13321,9591 13296,9585 13285,9581C13259,9570 13120,9540 13098,9540C13088,9540 13080,9536 13080,9530C13080,9525 13065,9520 13046,9520C13006,9520 12872,9493 12848,9479C12838,9474 12813,9470 12792,9470C12771,9470 12750,9467 12746,9463C12738,9454 12644,9431 12585,9423C12563,9420 12541,9414 12536,9409C12530,9404 12511,9400 12494,9400C12476,9400 12449,9395 12433,9389C12418,9383 12383,9374 12355,9369C12328,9363 12285,9355 12260,9350C12235,9346 12190,9335 12160,9327L12105,9312L12162,9311C12193,9310 12222,9315 12225,9320C12228,9326 12248,9330 12269,9330C12289,9330 12311,9335 12317,9341C12323,9347 12352,9355 12381,9360C12411,9365 12455,9374 12480,9379C12505,9385 12552,9394 12585,9401C12618,9407 12649,9416 12654,9421C12660,9426 12681,9430 12702,9430C12723,9430 12748,9434 12758,9439C12783,9451 12910,9480 12941,9480C12955,9480 12970,9484 12976,9489C12981,9494 13003,9500 13025,9503C13091,9512 13188,9534 13196,9543C13200,9547 13222,9550 13245,9550C13268,9550 13290,9553 13294,9557C13304,9567 13403,9590 13463,9597C13489,9600 13510,9606 13510,9610C13510,9614 13531,9620 13558,9623C13630,9631 13720,9652 13720,9662C13720,9666 13745,9670 13775,9670C13805,9670 13830,9674 13830,9679C13830,9684 13855,9691 13885,9695C13915,9698 13942,9706 13945,9711C13949,9716 13967,9720 13987,9720C14007,9720 14037,9724 14054,9730C14127,9752 14209,9770 14238,9770C14255,9770 14272,9775 14275,9780C14285,9797 14360,9792 14360,9775C14360,9765 14350,9760 14330,9760C14314,9760 14300,9756 14300,9751C14300,9746 14286,9738 14268,9735C14250,9731 14229,9724 14220,9720C14185,9702 14074,9660 14062,9660C14050,9660 14042,9657 13982,9627C13963,9618 13942,9610 13934,9610C13920,9610 13912,9607 13852,9577C13833,9568 13812,9560 13804,9560C13796,9560 13782,9556 13772,9551C13728,9529 13660,9502 13480,9438C13450,9427 13416,9415 13405,9410C13380,9401 13302,9370 13275,9360C13264,9356 13238,9345 13217,9336C13196,9327 13170,9320 13160,9320C13149,9320 13140,9316 13140,9310C13140,9305 13131,9300 13121,9300C13110,9300 13089,9294 13073,9286C13058,9278 13034,9267 13020,9262C13006,9257 12982,9247 12965,9240C12949,9234 12915,9222 12890,9214C12842,9198 12826,9192 12767,9166C12746,9157 12723,9150 12715,9150C12707,9150 12700,9146 12700,9140C12700,9135 12691,9130 12680,9130C12669,9130 12652,9126 12642,9121C12596,9098 12547,9080 12530,9080C12519,9080 12510,9076 12510,9070C12510,9065 12500,9060 12488,9060C12475,9060 12443,9048 12415,9035C12388,9021 12357,9010 12348,9010C12339,9010 12329,9006 12325,9001C12322,8996 12305,8988 12288,8984C12270,8981 12249,8974 12240,8970C12232,8966 12212,8957 12195,8950C12179,8944 12152,8932 12137,8924C12121,8916 12100,8910 12090,8910C12080,8910 12068,8906 12065,8900C12062,8895 12048,8890 12035,8890C12022,8890 12009,8886 12006,8881C12002,8876 11974,8864 11942,8854C11911,8845 11881,8834 11875,8830C11870,8826 11843,8815 11815,8805C11756,8785 11737,8778 11688,8756C11668,8747 11647,8740 11641,8740C11635,8740 11622,8736 11612,8731C11603,8726 11564,8710 11525,8695C11487,8680 11446,8664 11435,8660C11424,8655 11393,8644 11365,8634C11338,8625 11311,8613 11305,8608C11300,8604 11286,8600 11274,8600C11261,8600 11248,8596 11245,8590C11242,8585 11231,8580 11222,8580C11213,8580 11192,8573 11176,8565C11161,8557 11141,8550 11134,8550C11126,8550 11120,8546 11120,8540C11120,8535 11112,8530 11103,8530C11093,8529 11063,8521 11035,8511C10985,8493 10968,8486 10895,8455C10873,8446 10835,8432 10810,8424C10785,8415 10751,8402 10733,8394C10716,8386 10695,8380 10686,8380C10677,8380 10670,8376 10670,8370C10670,8365 10663,8360 10654,8360C10630,8360 10540,8327 10540,8318C10540,8313 10530,8310 10517,8310C10504,8310 10490,8306 10485,8302C10479,8298 10450,8286 10420,8276C10362,8257 10331,8245 10290,8226C10276,8219 10245,8207 10220,8200C10195,8192 10166,8180 10155,8173C10144,8166 10127,8160 10118,8160C10108,8160 10092,8156 10082,8151C10073,8146 10052,8137 10035,8130C10019,8124 9992,8112 9977,8104C9961,8096 9940,8090 9930,8090C9920,8090 9908,8086 9905,8080C9902,8075 9891,8070 9881,8070C9865,8070 9822,8053 9778,8029C9768,8024 9753,8020 9745,8020C9737,8020 9722,8016 9712,8011C9703,8006 9675,7994 9650,7985C9625,7976 9597,7964 9588,7959C9578,7954 9564,7950 9557,7950C9544,7950 9498,7931 9458,7909C9448,7904 9434,7900 9427,7900C9414,7900 9368,7881 9328,7859C9318,7854 9301,7850 9291,7850C9280,7850 9268,7846 9265,7840C9262,7835 9248,7830 9236,7830C9223,7830 9207,7823 9200,7815C9193,7807 9177,7800 9164,7800C9152,7800 9138,7796 9135,7790C9132,7785 9121,7780 9111,7780C9102,7780 9070,7769 9042,7755C9013,7741 8981,7730 8970,7730C8959,7730 8950,7726 8950,7720C8950,7715 8940,7710 8928,7710C8915,7710 8896,7703 8886,7695C8875,7687 8857,7680 8845,7680C8833,7680 8820,7676 8815,7672C8809,7667 8771,7651 8730,7636C8636,7602 8612,7592 8577,7574C8561,7566 8537,7560 8524,7560C8511,7560 8500,7556 8500,7550C8500,7545 8490,7540 8478,7540C8465,7540 8446,7533 8436,7525C8425,7517 8408,7510 8398,7510C8388,7510 8372,7506 8362,7501C8331,7484 8255,7453 8230,7446C8216,7442 8196,7435 8185,7431C8174,7426 8145,7415 8120,7405C8095,7396 8067,7384 8058,7379C8048,7374 8032,7370 8022,7370C8012,7370 8000,7366 7994,7362C7989,7357 7963,7345 7935,7336C7908,7326 7872,7312 7855,7306C7839,7299 7809,7287 7790,7280C7771,7273 7751,7263 7746,7258C7740,7254 7726,7250 7714,7250C7701,7250 7689,7246 7685,7241C7682,7236 7665,7228 7648,7224C7630,7221 7608,7214 7598,7209C7588,7204 7572,7196 7562,7191C7552,7186 7530,7179 7512,7176C7495,7172 7478,7164 7475,7159C7471,7154 7458,7150 7444,7150C7431,7150 7420,7146 7420,7140C7420,7135 7413,7130 7404,7130C7395,7130 7374,7124 7357,7116C7339,7109 7309,7097 7290,7090C7271,7083 7246,7074 7235,7070C7224,7066 7195,7055 7170,7045C7145,7035 7116,7024 7105,7020C7094,7015 7063,7004 7035,6994C7008,6985 6981,6973 6976,6968C6970,6964 6958,6960 6948,6960C6930,6960 6923,6957 6862,6927C6843,6918 6821,6910 6811,6910C6802,6910 6790,6906 6784,6902C6779,6897 6753,6885 6725,6876C6698,6866 6666,6855 6655,6850C6636,6843 6566,6815 6525,6800C6514,6796 6476,6781 6440,6766C6404,6752 6368,6740 6359,6740C6351,6740 6339,6735 6333,6729C6319,6715 6217,6715 6212,6729C6210,6735 6200,6740 6190,6740C6180,6740 6159,6746 6143,6754C6107,6772 6077,6784 6015,6806C5988,6815 5961,6827 5956,6832C5950,6836 5936,6840 5923,6840C5910,6840 5900,6845 5900,6850C5900,6856 5891,6860 5881,6860C5870,6860 5847,6868 5828,6877C5768,6907 5760,6910 5746,6910C5738,6910 5719,6916 5703,6924C5672,6940 5640,6953 5530,6995C5505,7004 5477,7016 5468,7021C5458,7026 5444,7030 5436,7030C5428,7030 5409,7036 5393,7044C5378,7052 5354,7063 5340,7068C5280,7092 5234,7112 5218,7120C5208,7126 5193,7130 5185,7130C5177,7130 5162,7134 5152,7139C5143,7144 5115,7156 5090,7165C5022,7191 5008,7197 4970,7212C4951,7220 4919,7233 4900,7240C4881,7247 4861,7257 4856,7262C4850,7266 4838,7270 4828,7270C4819,7270 4787,7281 4758,7294C4729,7307 4683,7326 4655,7336C4628,7345 4601,7357 4596,7362C4590,7366 4576,7370 4563,7370C4550,7370 4540,7374 4540,7379C4540,7384 4527,7390 4510,7393C4494,7397 4461,7409 4438,7420C4415,7431 4391,7440 4385,7440C4374,7440 4326,7460 4288,7481C4278,7486 4261,7490 4250,7490C4227,7490 4212,7516 4227,7531C4232,7536 4260,7543 4288,7547C4317,7550 4340,7556 4340,7560C4340,7565 4359,7570 4383,7573C4406,7576 4454,7585 4490,7595C4526,7604 4573,7614 4595,7616C4617,7619 4644,7625 4655,7629C4681,7640 4773,7660 4828,7667C4851,7670 4870,7676 4870,7680C4870,7684 4891,7690 4917,7693C4944,7696 4997,7706 5035,7715C5133,7738 5176,7747 5243,7761C5274,7767 5300,7776 5300,7781C5300,7786 5325,7790 5355,7790C5385,7790 5410,7795 5410,7800C5410,7806 5425,7810 5444,7810C5463,7810 5491,7815 5507,7821C5522,7826 5553,7834 5575,7837C5597,7840 5620,7846 5625,7850C5631,7854 5655,7860 5680,7863C5753,7872 5844,7892 5854,7901C5860,7906 5883,7910 5907,7910C5931,7910 5950,7915 5950,7920C5950,7926 5965,7930 5984,7930C6002,7930 6037,7937 6060,7945C6083,7953 6118,7960 6136,7960C6155,7960 6170,7964 6170,7969C6170,7974 6191,7980 6218,7983C6286,7990 6373,8010 6384,8021C6390,8026 6413,8030 6437,8030C6462,8030 6480,8035 6480,8041C6480,8057 6313,8032 6268,8009C6258,8004 6242,8000 6233,8000C6211,8000 6073,7971 6045,7960C6034,7956 5994,7947 5955,7940C5917,7934 5863,7922 5835,7915C5808,7908 5749,7894 5705,7885C5661,7875 5598,7861 5565,7854C5532,7846 5489,7837 5470,7834C5451,7831 5426,7825 5415,7820C5404,7816 5368,7806 5335,7800C5277,7788 5238,7780 5148,7761C5124,7756 5078,7746 5045,7740C5012,7733 4976,7724 4965,7719C4954,7715 4932,7709 4915,7706C4820,7690 4764,7677 4756,7669C4750,7664 4730,7660 4711,7660C4692,7660 4663,7656 4646,7650C4629,7645 4579,7633 4535,7624C4491,7615 4446,7604 4435,7600C4424,7595 4399,7589 4380,7586C4290,7573 4225,7558 4222,7550C4220,7544 4201,7540 4180,7540C4159,7540 4139,7536 4135,7531C4129,7520 4205,7483 4300,7450C4336,7438 4381,7421 4400,7413C4453,7390 4470,7384 4525,7365C4553,7356 4599,7337 4628,7324C4657,7311 4685,7300 4690,7300C4696,7300 4709,7296 4720,7290C4731,7285 4749,7276 4760,7270C4771,7264 4785,7260 4791,7260C4796,7260 4826,7249 4856,7235C4886,7221 4916,7210 4923,7210C4930,7210 4945,7203 4956,7195C4966,7187 4983,7180 4993,7180C5002,7180 5018,7176 5028,7171C5062,7152 5118,7130 5129,7130C5135,7130 5148,7126 5158,7121C5167,7116 5207,7099 5245,7084C5284,7070 5329,7052 5345,7045C5362,7038 5391,7027 5410,7020C5429,7013 5459,7002 5475,6995C5492,6987 5532,6972 5565,6960C5598,6948 5639,6932 5655,6925C5672,6918 5741,6891 5810,6865C5879,6839 5939,6813 5944,6809C5950,6804 5963,6800 5973,6800C5983,6800 6004,6794 6018,6786C6033,6778 6088,6756 6140,6735C6276,6683 6264,6692 6296,6615C6313,6574 6316,6566 6345,6490C6355,6465 6366,6436 6370,6425C6374,6414 6384,6389 6390,6370C6397,6351 6408,6322 6415,6305C6422,6289 6435,6255 6445,6230C6454,6205 6466,6176 6470,6165C6475,6154 6495,6100 6515,6045C6536,5990 6558,5932 6565,5915C6571,5899 6583,5869 6590,5850C6596,5831 6606,5806 6610,5795C6646,5703 6655,5680 6670,5645C6680,5623 6691,5594 6694,5580C6698,5566 6705,5545 6711,5533C6721,5508 6728,5489 6755,5420C6765,5395 6777,5364 6783,5350C6805,5295 6809,5284 6814,5258C6818,5242 6825,5230 6830,5230C6836,5230 6840,5222 6840,5213C6840,5195 6869,5114 6895,5055C6903,5039 6916,5001 6926,4972C6935,4943 6946,4917 6951,4914C6956,4911 6960,4898 6960,4884C6960,4871 6965,4860 6970,4860C6976,4860 6980,4850 6980,4837C6980,4824 6987,4805 6995,4794C7003,4784 7010,4767 7010,4757C7010,4748 7014,4732 7019,4722C7027,4707 7037,4681 7070,4595C7074,4584 7085,4557 7093,4535C7102,4513 7114,4478 7121,4458C7128,4437 7137,4420 7141,4420C7148,4420 7191,4451 7347,4567C7408,4613 7461,4650 7464,4650C7467,4650 7507,4678 7552,4712C7598,4747 7652,4786 7673,4800C7693,4814 7710,4828 7710,4833C7710,4837 7715,4840 7720,4840C7731,4840 7832,4912 7858,4937C7866,4944 7881,4955 7893,4962C7905,4968 7957,5005 8009,5044C8060,5083 8112,5122 8125,5130C8198,5179 8224,5198 8275,5238C8281,5243 8299,5255 8315,5265C8332,5276 8379,5310 8420,5341C8461,5372 8558,5442 8634,5496C8711,5550 8789,5607 8809,5622C8877,5674 8885,5676 8948,5655C8979,5645 9027,5626 9054,5613C9082,5600 9110,5590 9117,5590C9130,5590 9138,5587 9198,5557C9217,5548 9238,5540 9246,5540C9254,5540 9268,5536 9278,5531C9313,5514 9366,5492 9400,5480C9448,5463 9469,5455 9513,5436C9534,5427 9560,5420 9570,5420C9581,5420 9590,5416 9590,5412C9590,5408 9616,5396 9648,5385C9679,5375 9712,5363 9720,5359C9744,5348 9802,5324 9840,5310C9859,5304 9884,5294 9895,5290C9906,5286 9935,5275 9960,5265C9985,5256 10013,5244 10022,5239C10032,5234 10045,5230 10053,5230C10060,5230 10326,5491 10645,5811C12031,7200 12499,7670 13558,8735C14175,9356 14680,9868 14680,9872C14680,9886 14664,9887 14610,9875ZM14410,9800C14410,9795 14401,9790 14390,9790C14379,9790 14370,9795 14370,9800C14370,9806 14379,9810 14390,9810C14401,9810 14410,9806 14410,9800ZM14573,9793C14566,9791 14560,9784 14560,9780C14560,9775 14279,9490 13935,9147C13591,8803 13310,8517 13310,8512C13310,8506 13306,8500 13300,8498C13285,8493 12730,7939 12730,7929C12730,7924 12726,7920 12722,7920C12718,7920 12584,7789 12425,7628C12120,7321 11234,6431 10507,5702C10269,5464 10067,5264 10056,5258C10046,5253 10035,5252 10031,5257C10028,5261 10000,5274 9970,5284C9940,5294 9911,5307 9906,5311C9900,5316 9886,5320 9874,5320C9861,5320 9849,5324 9846,5328C9843,5333 9814,5345 9781,5356C9747,5366 9720,5378 9720,5382C9720,5387 9712,5390 9703,5390C9693,5390 9656,5402 9620,5416C9584,5431 9544,5447 9530,5452C9516,5457 9492,5468 9477,5476C9461,5484 9440,5490 9429,5490C9419,5490 9410,5495 9410,5500C9410,5506 9401,5510 9390,5510C9380,5510 9354,5517 9333,5526C9293,5544 9258,5558 9225,5570C9214,5574 9185,5585 9160,5595C9135,5605 9106,5616 9095,5620C9075,5628 9001,5656 8965,5670C8917,5689 8864,5712 8848,5720C8838,5726 8819,5730 8806,5730C8793,5730 8780,5735 8778,5741C8776,5747 8761,5750 8745,5748C8719,5745 8723,5742 8778,5725C8838,5706 8848,5697 8832,5675C8828,5669 8731,5597 8615,5515C8406,5366 8390,5354 8367,5335C8360,5329 8261,5257 8145,5175C8030,5093 7929,5020 7922,5013C7915,5006 7905,5000 7901,5000C7897,5000 7885,4992 7874,4982C7841,4952 7711,4860 7701,4860C7696,4860 7690,4856 7688,4851C7687,4847 7620,4796 7540,4740C7414,4650 7381,4626 7325,4582C7320,4578 7287,4554 7253,4530C7191,4487 7164,4483 7188,4520C7195,4531 7200,4547 7200,4555C7200,4563 7204,4578 7209,4588C7214,4597 7226,4623 7235,4645C7245,4667 7257,4693 7261,4702C7266,4712 7270,4726 7270,4734C7270,4742 7278,4763 7287,4782C7318,4843 7320,4850 7320,4870C7320,4881 7325,4890 7330,4890C7336,4890 7340,4899 7340,4909C7340,4920 7346,4941 7354,4957C7362,4972 7373,4996 7378,5010C7402,5070 7422,5116 7430,5132C7436,5142 7440,5159 7440,5170C7440,5181 7444,5190 7449,5190C7454,5190 7460,5203 7463,5220C7467,5236 7479,5269 7490,5292C7501,5315 7510,5340 7510,5347C7510,5354 7514,5368 7519,5378C7543,5422 7560,5465 7560,5482C7560,5492 7565,5500 7570,5500C7576,5500 7580,5508 7580,5518C7580,5528 7587,5545 7595,5556C7603,5566 7610,5583 7610,5593C7610,5602 7614,5618 7619,5628C7624,5637 7636,5663 7645,5685C7655,5707 7667,5733 7671,5742C7676,5752 7680,5769 7680,5780C7680,5791 7684,5800 7688,5800C7693,5800 7705,5827 7716,5860C7726,5893 7738,5920 7742,5920C7747,5920 7750,5937 7749,5958L7748,5995L7737,5963C7730,5946 7722,5928 7718,5924C7713,5920 7710,5904 7710,5888C7710,5873 7706,5860 7700,5860C7695,5860 7690,5853 7690,5844C7690,5835 7683,5814 7674,5797C7643,5737 7640,5730 7640,5709C7640,5698 7633,5682 7625,5674C7617,5665 7610,5650 7610,5640C7610,5630 7606,5618 7600,5615C7595,5612 7590,5598 7590,5584C7590,5571 7586,5560 7581,5560C7576,5560 7570,5550 7567,5538C7555,5491 7535,5440 7528,5440C7523,5440 7520,5431 7520,5420C7520,5409 7516,5392 7511,5382C7487,5338 7470,5295 7470,5278C7470,5268 7466,5260 7460,5260C7455,5260 7450,5252 7450,5243C7450,5233 7443,5212 7435,5196C7427,5181 7420,5159 7420,5149C7420,5138 7416,5130 7411,5130C7406,5130 7400,5120 7397,5108C7385,5061 7365,5010 7358,5010C7353,5010 7350,4999 7350,4986C7350,4972 7346,4959 7341,4955C7335,4952 7323,4923 7313,4890C7304,4857 7292,4830 7288,4830C7284,4830 7280,4823 7280,4815C7280,4807 7274,4786 7266,4768C7258,4750 7243,4715 7232,4690C7221,4665 7207,4627 7200,4605C7182,4548 7151,4490 7139,4490C7134,4490 7127,4498 7124,4508C7121,4517 7114,4533 7109,4542C7104,4552 7100,4567 7100,4575C7100,4583 7096,4598 7091,4608C7069,4648 7050,4694 7050,4707C7050,4714 7046,4728 7041,4738C7022,4772 7000,4828 7000,4839C7000,4845 6996,4859 6990,4870C6985,4881 6976,4899 6970,4910C6965,4921 6960,4935 6960,4941C6960,4947 6953,4968 6944,4988C6935,5009 6925,5034 6920,5045C6916,5056 6905,5082 6896,5103C6887,5124 6880,5150 6880,5160C6880,5171 6877,5180 6872,5180C6868,5180 6856,5207 6846,5240C6835,5273 6823,5300 6818,5300C6814,5300 6810,5310 6810,5323C6810,5336 6806,5350 6801,5355C6797,5361 6785,5390 6774,5420C6764,5450 6752,5479 6748,5485C6744,5490 6740,5502 6740,5512C6740,5532 6709,5603 6698,5608C6693,5610 6690,5623 6690,5636C6690,5649 6686,5668 6681,5678C6676,5687 6665,5713 6657,5735C6603,5881 6545,6023 6530,6052C6524,6062 6520,6077 6520,6085C6520,6093 6516,6108 6511,6118C6488,6164 6470,6213 6470,6230C6470,6241 6466,6250 6461,6250C6456,6250 6450,6260 6447,6273C6435,6319 6415,6370 6408,6370C6403,6370 6400,6378 6400,6389C6400,6405 6392,6430 6361,6505C6356,6516 6348,6536 6343,6550C6337,6564 6325,6594 6315,6616C6289,6680 6296,6691 6380,6723C6421,6739 6464,6755 6475,6760C6486,6764 6515,6775 6540,6785C6565,6794 6593,6806 6602,6811C6612,6816 6627,6820 6635,6820C6643,6820 6658,6824 6668,6829C6712,6853 6755,6870 6772,6870C6782,6870 6790,6873 6790,6878C6790,6882 6818,6894 6853,6904C6887,6914 6920,6926 6925,6930C6931,6934 6958,6944 6985,6954C7013,6964 7044,6975 7055,6980C7066,6984 7095,6995 7120,7005C7145,7014 7173,7026 7182,7031C7192,7036 7209,7040 7220,7040C7231,7040 7240,7045 7240,7050C7240,7056 7250,7060 7263,7060C7276,7060 7295,7067 7306,7075C7316,7083 7333,7090 7343,7090C7352,7090 7368,7094 7378,7099C7387,7104 7415,7116 7440,7125C7510,7152 7534,7162 7552,7171C7562,7176 7575,7180 7581,7180C7587,7180 7606,7186 7623,7194C7641,7202 7675,7215 7700,7223C7725,7231 7759,7244 7775,7250C7792,7257 7815,7266 7828,7271C7840,7276 7860,7284 7873,7290C7885,7295 7933,7314 7980,7330C8026,7347 8069,7365 8074,7370C8080,7376 8093,7380 8105,7380C8117,7380 8130,7384 8135,7388C8141,7392 8170,7404 8200,7414C8230,7425 8259,7437 8265,7441C8270,7446 8283,7450 8295,7450C8307,7450 8320,7454 8325,7458C8331,7463 8358,7475 8385,7484C8413,7494 8453,7510 8475,7520C8497,7529 8526,7541 8540,7544C8565,7551 8601,7566 8630,7580C8639,7584 8660,7591 8678,7594C8695,7598 8712,7606 8715,7611C8719,7616 8731,7620 8744,7620C8756,7620 8770,7624 8775,7628C8781,7633 8808,7645 8835,7654C8890,7673 8926,7688 8952,7701C8962,7706 8975,7710 8981,7710C8987,7710 9008,7717 9028,7726C9085,7751 9100,7757 9180,7785C9221,7799 9266,7817 9280,7824C9294,7831 9325,7843 9350,7850C9375,7858 9400,7867 9405,7870C9411,7874 9433,7883 9455,7890C9477,7897 9509,7908 9525,7915C9572,7934 9628,7956 9710,7986C9751,8001 9789,8017 9795,8022C9800,8026 9812,8030 9822,8030C9832,8030 9848,8034 9858,8039C9898,8061 9944,8080 9957,8080C9964,8080 9979,8085 9990,8090C10001,8096 10019,8105 10030,8110C10041,8116 10055,8120 10061,8120C10067,8120 10088,8127 10108,8136C10146,8153 10156,8156 10230,8185C10255,8194 10283,8206 10292,8211C10302,8216 10317,8220 10325,8220C10340,8220 10348,8223 10408,8253C10427,8262 10448,8270 10456,8270C10464,8270 10478,8274 10488,8279C10497,8284 10525,8296 10550,8305C10575,8314 10603,8326 10612,8331C10622,8336 10637,8340 10645,8340C10653,8340 10668,8344 10678,8349C10718,8371 10764,8390 10777,8390C10790,8390 10798,8393 10858,8423C10877,8432 10899,8440 10909,8440C10918,8440 10930,8444 10935,8448C10941,8453 10968,8465 10995,8474C11049,8493 11066,8500 11122,8524C11142,8533 11163,8540 11169,8540C11175,8540 11199,8549 11223,8559C11246,8570 11288,8586 11315,8595C11372,8615 11391,8622 11442,8644C11462,8653 11483,8660 11489,8660C11495,8660 11510,8665 11523,8672C11564,8693 11576,8697 11608,8704C11625,8708 11642,8716 11645,8721C11649,8726 11660,8730 11671,8730C11681,8730 11698,8734 11708,8739C11725,8748 11773,8769 11820,8788C11834,8794 11868,8806 11895,8816C11923,8825 11949,8837 11954,8842C11960,8846 11977,8850 11992,8850C12007,8850 12020,8854 12020,8859C12020,8864 12035,8872 12053,8875C12070,8879 12103,8890 12125,8900C12147,8910 12188,8926 12215,8936C12243,8945 12269,8957 12274,8962C12280,8966 12294,8970 12306,8970C12319,8970 12332,8975 12335,8980C12338,8986 12348,8990 12356,8990C12364,8990 12393,9001 12422,9015C12450,9029 12479,9040 12487,9040C12494,9040 12516,9047 12537,9056C12593,9081 12639,9099 12700,9120C12719,9127 12749,9139 12765,9146C12782,9152 12818,9166 12845,9175C12873,9184 12904,9196 12915,9200C12936,9209 13062,9257 13095,9270C13106,9274 13133,9285 13155,9293C13177,9302 13240,9325 13295,9345C13350,9366 13409,9388 13425,9395C13442,9402 13477,9415 13504,9424C13547,9439 13595,9457 13675,9490C13686,9495 13722,9508 13755,9520C13788,9532 13829,9547 13845,9555C13862,9562 13898,9575 13925,9585C13953,9594 13985,9606 13998,9611C14028,9623 14057,9635 14105,9653C14127,9661 14174,9680 14210,9694C14246,9708 14282,9720 14291,9720C14299,9720 14310,9724 14316,9729C14321,9733 14340,9740 14358,9744C14385,9749 14389,9747 14378,9737C14361,9721 14281,9673 14208,9635C14176,9619 14150,9602 14150,9598C14150,9594 14142,9590 14132,9590C14122,9590 14110,9586 14104,9581C14099,9576 14064,9555 14025,9535C13941,9489 13858,9444 13810,9417C13791,9406 13737,9377 13690,9352C13643,9327 13586,9294 13562,9278C13538,9263 13513,9250 13506,9250C13500,9250 13490,9246 13485,9241C13479,9237 13441,9215 13400,9193C13307,9143 13237,9104 13185,9073C13163,9060 13133,9044 13118,9037C13102,9031 13090,9022 13090,9018C13090,9014 13083,9010 13075,9010C13066,9010 13042,8999 13020,8985C12998,8971 12976,8960 12971,8960C12966,8960 12960,8957 12958,8953C12957,8948 12935,8935 12910,8922C12831,8883 12785,8856 12782,8848C12780,8844 12772,8840 12764,8840C12756,8840 12726,8825 12697,8807C12668,8789 12616,8760 12580,8742C12544,8724 12488,8693 12455,8674C12422,8655 12384,8634 12370,8628C12356,8621 12343,8613 12340,8610C12337,8606 12304,8588 12265,8568C12173,8522 12126,8496 12120,8490C12117,8487 12097,8476 12075,8465C12053,8454 12034,8442 12032,8438C12030,8433 12020,8430 12009,8430C11999,8430 11990,8426 11990,8421C11990,8416 11982,8410 11973,8407C11963,8404 11930,8387 11900,8370C11829,8329 11732,8276 11661,8237C11493,8147 11440,8118 11365,8076C11338,8060 11281,8029 11240,8007C11199,7985 11164,7963 11162,7958C11160,7954 11153,7950 11145,7950C11133,7950 11040,7902 11030,7891C11027,7887 10996,7870 10960,7852C10924,7834 10870,7806 10840,7789C10810,7772 10751,7739 10710,7717C10669,7695 10631,7674 10625,7669C10620,7665 10581,7644 10539,7622C10446,7573 10416,7557 10410,7550C10407,7547 10378,7531 10345,7515C10312,7498 10283,7483 10280,7480C10274,7474 10181,7424 10133,7401C10115,7393 10100,7382 10100,7378C10100,7374 10093,7370 10085,7370C10076,7370 10052,7359 10030,7345C10008,7331 9986,7320 9980,7320C9975,7320 9970,7317 9970,7313C9970,7308 9950,7296 9925,7285C9900,7274 9880,7263 9880,7260C9880,7257 9860,7246 9835,7236C9810,7225 9790,7213 9790,7208C9790,7204 9783,7200 9775,7200C9767,7200 9737,7185 9708,7167C9679,7149 9637,7125 9615,7115C9593,7104 9574,7092 9572,7088C9570,7083 9560,7080 9549,7080C9539,7080 9530,7077 9530,7073C9530,7068 9520,7060 9507,7055C9469,7037 9355,6975 9350,6969C9347,6966 9327,6956 9305,6946C9283,6935 9263,6924 9260,6921C9257,6918 9228,6902 9195,6885C9162,6869 9133,6853 9130,6850C9127,6847 9107,6836 9085,6825C9063,6814 9043,6803 9040,6800C9037,6797 9010,6782 8980,6766C8950,6750 8909,6728 8890,6717C8871,6706 8815,6676 8765,6650C8639,6584 8610,6566 8610,6558C8610,6553 8602,6550 8592,6550C8582,6550 8570,6546 8565,6541C8559,6536 8521,6514 8480,6492C8439,6470 8387,6442 8365,6430C8343,6418 8291,6389 8250,6367C8209,6345 8174,6323 8172,6318C8170,6314 8162,6310 8154,6310C8146,6310 8122,6299 8100,6285C8078,6271 8056,6260 8051,6260C8046,6260 8040,6257 8038,6253C8037,6248 8017,6236 7995,6225C7973,6214 7929,6190 7897,6173C7864,6155 7832,6140 7826,6140C7819,6140 7805,6123 7795,6103C7785,6082 7773,6057 7769,6048C7764,6038 7760,6020 7761,6008C7761,5992 7768,6000 7786,6038C7799,6066 7815,6090 7820,6090C7829,6090 7866,6076 7906,6058C7918,6052 7936,6050 7946,6053C7960,6056 7957,6059 7933,6065C7915,6069 7900,6076 7900,6081C7900,6086 7889,6090 7875,6090C7848,6090 7841,6111 7863,6127C7876,6138 7963,6187 8040,6228C8065,6241 8103,6262 8125,6276C8147,6289 8177,6305 8193,6311C8208,6317 8220,6326 8220,6331C8220,6336 8229,6340 8240,6340C8251,6340 8260,6344 8260,6349C8260,6354 8277,6365 8298,6374C8337,6391 8459,6455 8545,6504C8573,6520 8629,6551 8670,6572C8711,6594 8750,6616 8755,6620C8766,6629 8817,6656 8930,6715C8949,6725 8967,6736 8970,6739C8973,6742 9004,6760 9040,6777C9115,6815 9183,6853 9190,6861C9193,6864 9227,6882 9265,6902C9356,6948 9404,6974 9410,6980C9413,6983 9435,6996 9460,7009C9623,7094 9702,7136 9750,7165C9780,7183 9839,7216 9880,7237C9921,7259 9974,7288 9997,7303C10021,7318 10046,7330 10055,7330C10063,7330 10070,7333 10070,7338C10070,7342 10089,7354 10113,7365C10136,7376 10157,7387 10160,7390C10163,7393 10179,7402 10195,7411C10239,7434 10274,7454 10280,7460C10283,7463 10323,7485 10370,7509C10514,7582 10595,7625 10600,7630C10608,7638 10643,7659 10685,7680C10707,7691 10757,7718 10795,7740C10834,7762 10892,7794 10925,7810C10958,7827 10999,7849 11015,7859C11061,7886 11138,7929 11215,7970C11254,7990 11305,8019 11330,8034C11355,8048 11395,8070 11420,8082C11445,8094 11467,8106 11470,8109C11473,8112 11495,8125 11520,8137C11545,8149 11592,8175 11625,8195C11658,8214 11696,8236 11710,8242C11724,8249 11737,8257 11740,8260C11743,8263 11774,8280 11810,8298C11846,8316 11900,8344 11930,8361C11960,8379 12008,8405 12035,8419C12063,8433 12087,8447 12090,8450C12093,8453 12118,8467 12145,8481C12241,8531 12265,8545 12268,8553C12270,8557 12278,8560 12286,8560C12294,8560 12319,8572 12343,8587C12381,8611 12439,8643 12565,8708C12593,8723 12617,8737 12620,8740C12623,8744 12643,8755 12665,8766C12731,8798 12825,8853 12828,8862C12830,8866 12838,8870 12846,8870C12854,8870 12871,8876 12883,8884C12919,8907 13010,8957 13080,8992C13116,9010 13147,9027 13150,9030C13153,9033 13173,9044 13195,9055C13217,9066 13246,9082 13260,9091C13274,9100 13319,9125 13360,9147C13528,9238 13556,9253 13576,9265C13587,9272 13630,9296 13671,9318C13712,9340 13768,9370 13795,9386C13891,9440 13945,9469 13985,9489C14007,9501 14052,9526 14085,9545C14118,9565 14157,9585 14173,9591C14188,9597 14200,9606 14200,9611C14200,9616 14207,9620 14215,9620C14223,9620 14268,9643 14316,9670C14364,9698 14404,9720 14405,9720C14407,9720 14435,9735 14469,9754C14526,9786 14552,9797 14575,9798C14581,9798 14579,9796 14573,9793Z" style="fill-rule:nonzero;"/>
                    <path d="M7961,6036C7973,6026 8020,6021 8020,6030C8020,6035 8006,6040 7988,6040C7971,6040 7959,6038 7961,6036Z" style="fill-rule:nonzero;"/>
                    <path d="M8035,6010C8038,6005 8053,6000 8068,6000C8089,6000 8092,6002 8080,6010C8060,6023 8027,6023 8035,6010Z" style="fill-rule:nonzero;"/>
                    <path d="M8100,5988C8100,5984 8111,5980 8124,5980C8137,5980 8153,5973 8160,5965C8174,5948 8210,5945 8210,5960C8210,5966 8199,5970 8185,5970C8171,5970 8160,5974 8160,5979C8160,5984 8147,5990 8130,5992C8114,5995 8100,5993 8100,5988Z" style="fill-rule:nonzero;"/>
                    <path d="M8225,5940C8228,5935 8237,5930 8244,5930C8252,5930 8271,5923 8286,5915C8320,5898 8340,5896 8340,5910C8340,5916 8328,5920 8314,5920C8300,5920 8282,5927 8274,5935C8257,5952 8215,5956 8225,5940Z" style="fill-rule:nonzero;"/>
                    <path d="M8350,5890C8350,5885 8361,5880 8375,5880C8389,5880 8400,5885 8400,5890C8400,5896 8389,5900 8375,5900C8361,5900 8350,5896 8350,5890Z" style="fill-rule:nonzero;"/>
                    <path d="M8450,5850C8475,5840 8503,5831 8513,5831C8522,5830 8530,5826 8530,5820C8530,5815 8539,5810 8550,5810C8561,5810 8578,5806 8588,5800C8635,5775 8681,5759 8697,5763C8714,5767 8713,5767 8695,5774C8684,5778 8667,5786 8658,5791C8648,5796 8631,5800 8619,5800C8608,5800 8592,5807 8584,5815C8575,5823 8560,5830 8550,5830C8540,5830 8528,5835 8525,5840C8522,5846 8508,5850 8495,5850C8482,5850 8468,5855 8465,5860C8462,5866 8447,5870 8432,5869C8409,5869 8411,5866 8450,5850Z" style="fill-rule:nonzero;"/>
                    <path d="M12040,9303C12021,9301 11996,9295 11985,9290C11974,9286 11949,9279 11930,9276C11911,9273 11866,9263 11830,9255C11757,9237 11716,9228 11615,9206C11577,9198 11525,9186 11500,9180C11453,9168 11416,9160 11315,9140C11282,9133 11246,9124 11235,9119C11224,9115 11197,9109 11175,9106C11153,9103 11106,9094 11070,9085C11034,9076 10985,9065 10960,9060C10935,9056 10886,9044 10850,9035C10814,9026 10767,9016 10745,9013C10723,9010 10701,9004 10695,8999C10690,8994 10673,8990 10656,8990C10640,8990 10604,8984 10576,8976C10548,8968 10491,8954 10450,8944C10409,8935 10346,8921 10310,8913C10238,8896 10190,8886 10115,8871C10088,8865 10036,8853 10000,8845C9906,8822 9863,8812 9795,8800C9763,8794 9731,8785 9725,8781C9720,8776 9695,8770 9670,8767C9597,8758 9509,8740 9489,8730C9479,8724 9458,8720 9441,8720C9425,8720 9408,8716 9405,8710C9402,8705 9384,8700 9367,8700C9330,8700 9203,8673 9178,8659C9168,8654 9145,8650 9126,8650C9107,8650 9088,8646 9085,8640C9082,8635 9064,8630 9047,8630C9029,8630 8999,8625 8980,8619C8961,8613 8926,8604 8903,8599C8879,8594 8841,8586 8818,8580C8794,8575 8753,8567 8725,8561C8698,8556 8662,8547 8647,8541C8631,8535 8607,8530 8593,8530C8578,8530 8553,8526 8536,8521C8483,8505 8366,8480 8347,8480C8338,8480 8322,8476 8312,8471C8303,8466 8257,8454 8210,8445C8163,8436 8116,8424 8105,8420C8094,8415 8069,8409 8050,8406C8031,8404 7988,8395 7955,8387L7895,8372L7953,8371C7984,8370 8010,8374 8010,8379C8010,8384 8029,8390 8053,8393C8136,8404 8220,8423 8220,8431C8220,8436 8237,8440 8257,8440C8277,8440 8307,8444 8324,8449C8382,8466 8455,8483 8490,8487C8509,8489 8534,8495 8545,8500C8556,8505 8581,8511 8600,8513C8655,8520 8754,8544 8760,8551C8763,8555 8785,8560 8810,8563C8835,8566 8884,8575 8920,8585C8956,8594 9006,8604 9033,8607C9059,8610 9080,8616 9080,8621C9080,8626 9092,8630 9108,8630C9136,8630 9260,8657 9295,8671C9306,8675 9333,8681 9355,8684C9377,8686 9427,8696 9465,8705C9504,8714 9549,8724 9565,8726C9582,8729 9604,8735 9615,8739C9644,8751 9737,8771 9793,8777C9819,8780 9840,8786 9840,8790C9840,8794 9861,8800 9888,8803C9936,8809 10043,8832 10070,8842C10078,8846 10099,8851 10115,8854C10233,8875 10270,8884 10270,8891C10270,8896 10292,8900 10319,8900C10347,8900 10372,8905 10375,8910C10378,8916 10396,8920 10415,8920C10434,8920 10461,8925 10477,8931C10492,8937 10528,8946 10555,8951C10583,8957 10625,8965 10650,8970C10675,8975 10724,8986 10760,8995C10796,9004 10841,9014 10860,9016C10879,9019 10904,9025 10915,9030C10926,9035 10951,9041 10970,9043C11028,9051 11124,9072 11142,9081C11152,9086 11171,9090 11184,9090C11198,9090 11221,9095 11237,9101C11252,9107 11288,9116 11315,9121C11343,9127 11383,9135 11405,9140C11427,9145 11471,9154 11504,9160C11536,9166 11571,9175 11581,9180C11591,9186 11617,9190 11639,9190C11662,9190 11680,9194 11680,9199C11680,9204 11699,9210 11723,9213C11780,9220 11861,9239 11882,9250C11892,9256 11914,9260 11932,9260C11949,9260 11977,9264 11994,9270C12011,9275 12042,9282 12063,9285C12083,9288 12100,9295 12100,9300C12100,9306 12094,9309 12088,9308C12081,9308 12059,9305 12040,9303Z" style="fill-rule:nonzero;"/>
                    <path d="M7825,8359C7803,8355 7754,8345 7715,8336C7651,8322 7607,8311 7410,8264C7374,8255 7323,8244 7295,8240C7236,8230 7122,8205 7065,8189C7025,8178 6996,8172 6885,8150C6852,8144 6817,8134 6808,8129C6798,8124 6775,8120 6757,8120C6738,8120 6720,8117 6716,8113C6709,8105 6618,8085 6537,8073C6517,8070 6497,8064 6494,8059C6486,8045 6550,8049 6595,8065C6617,8073 6652,8080 6673,8080C6693,8080 6710,8085 6710,8090C6710,8096 6727,8100 6749,8100C6770,8100 6804,8107 6823,8115C6843,8123 6872,8130 6888,8130C6903,8130 6920,8134 6925,8139C6931,8144 6953,8150 6975,8153C6997,8156 7047,8166 7085,8175C7124,8184 7171,8193 7190,8196C7209,8199 7234,8205 7245,8210C7256,8215 7281,8221 7300,8223C7358,8231 7454,8252 7472,8261C7482,8266 7505,8270 7524,8270C7543,8270 7562,8275 7565,8280C7568,8286 7584,8290 7599,8290C7615,8290 7647,8297 7670,8305C7693,8313 7727,8320 7746,8320C7764,8320 7782,8325 7785,8330C7788,8336 7806,8340 7823,8340C7867,8340 7901,8350 7894,8361C7888,8371 7882,8371 7825,8359Z" style="fill-rule:nonzero;"/>
                </g>
            </g>
        </g>
    </g>
</svg>
