<?xml version="1.0" encoding="UTF-8" standalone="no"?>
<!DOCTYPE svg PUBLIC "-//W3C//DTD SVG 1.1//EN" "http://www.w3.org/Graphics/SVG/1.1/DTD/svg11.dtd">
<svg width="100%" height="100%" viewBox="0 0 1080 1080" version="1.1" xmlns="http://www.w3.org/2000/svg" xmlns:xlink="http://www.w3.org/1999/xlink" xml:space="preserve" xmlns:serif="http://www.serif.com/" style="fill-rule:evenodd;clip-rule:evenodd;stroke-linejoin:round;stroke-miterlimit:2;">
    <g transform="matrix(1.49893,0,0,1.49893,-320.067,259.251)">
        <g transform="matrix(0.1,0,0,-0.1,0,664)">
            <path d="M3083,5967L3050,5957L3050,5500L3130,5500L3130,5619C3130,5732 3131,5740 3152,5754C3179,5773 3221,5775 3238,5758C3246,5750 3250,5705 3250,5623L3250,5500L3325,5500L3322,5647C3320,5729 3314,5800 3308,5807C3287,5833 3235,5841 3189,5826C3165,5817 3142,5810 3138,5810C3133,5810 3130,5846 3130,5889C3130,5933 3127,5971 3123,5973C3118,5975 3100,5972 3083,5967Z" style="fill:rgb(255,178,0);fill-rule:nonzero;"/>
        </g>
        <g transform="matrix(0.1,0,0,-0.1,0,664)">
            <path d="M3805,5968L3775,5959L3778,5742C3781,5537 3782,5524 3801,5508C3813,5497 3839,5490 3861,5490C3892,5490 3900,5494 3900,5509C3900,5519 3890,5534 3878,5542C3856,5557 3855,5562 3853,5759C3851,5870 3850,5966 3850,5971C3850,5982 3845,5981 3805,5968Z" style="fill:rgb(255,178,0);fill-rule:nonzero;"/>
        </g>
        <g transform="matrix(0.1,0,0,-0.1,0,664)">
            <path d="M5390,5960C5366,5936 5366,5931 5386,5902C5405,5874 5444,5874 5464,5901C5480,5924 5476,5948 5452,5968C5430,5985 5413,5983 5390,5960Z" style="fill:rgb(255,178,0);fill-rule:nonzero;"/>
        </g>
        <g transform="matrix(0.1,0,0,-0.1,0,664)">
            <path d="M5890,5971L5865,5964L5862,5732L5860,5500L5939,5500L5937,5737C5936,5885 5931,5974 5925,5976C5920,5977 5904,5975 5890,5971Z" style="fill:rgb(255,178,0);fill-rule:nonzero;"/>
        </g>
        <g transform="matrix(0.1,0,0,-0.1,0,664)">
            <path d="M6230,5966C6211,5960 6196,5952 6198,5948C6199,5943 6200,5850 6200,5740C6200,5540 6200,5539 6225,5515C6241,5498 6260,5490 6284,5490C6330,5490 6337,5504 6306,5534L6280,5557L6280,5763C6280,5876 6277,5971 6273,5973C6268,5976 6249,5973 6230,5966Z" style="fill:rgb(255,178,0);fill-rule:nonzero;"/>
        </g>
        <g transform="matrix(0.1,0,0,-0.1,0,664)">
            <path d="M8750,5960C8726,5936 8725,5917 8746,5896C8776,5865 8830,5887 8830,5930C8830,5947 8796,5980 8778,5980C8773,5980 8761,5971 8750,5960Z" style="fill:rgb(255,178,0);fill-rule:nonzero;"/>
        </g>
        <g transform="matrix(0.1,0,0,-0.1,0,664)">
            <path d="M2431,5942C2381,5917 2358,5881 2358,5826C2356,5757 2381,5731 2473,5699C2514,5685 2556,5668 2564,5661C2586,5643 2584,5607 2561,5579C2545,5559 2532,5555 2488,5555C2458,5555 2421,5562 2403,5572C2371,5588 2370,5588 2355,5567C2347,5555 2340,5541 2340,5534C2340,5498 2503,5477 2574,5504C2636,5528 2662,5560 2668,5618C2675,5701 2629,5759 2542,5775C2479,5787 2450,5807 2450,5840C2450,5896 2514,5916 2583,5881L2620,5862L2640,5887C2651,5901 2660,5916 2660,5920C2660,5935 2567,5960 2516,5960C2487,5960 2450,5952 2431,5942Z" style="fill:rgb(255,178,0);fill-rule:nonzero;"/>
        </g>
        <g transform="matrix(0.1,0,0,-0.1,0,664)">
            <path d="M4713,5919C4683,5910 4680,5906 4680,5870C4680,5841 4676,5830 4665,5830C4656,5830 4650,5821 4650,5806C4650,5793 4657,5780 4665,5776C4677,5772 4680,5749 4680,5656C4680,5512 4690,5495 4773,5495C4804,5495 4831,5498 4834,5501C4847,5514 4827,5540 4805,5540C4766,5540 4759,5560 4762,5671C4765,5773 4765,5775 4790,5779C4832,5784 4848,5833 4808,5830C4762,5826 4760,5829 4760,5880C4760,5908 4757,5930 4753,5929C4748,5929 4730,5924 4713,5919Z" style="fill:rgb(255,178,0);fill-rule:nonzero;"/>
        </g>
        <g transform="matrix(0.1,0,0,-0.1,0,664)">
            <path d="M2820,5818C2761,5788 2740,5746 2740,5660C2740,5579 2762,5531 2810,5508C2853,5486 2899,5485 2945,5504C2982,5520 2989,5540 2966,5559C2955,5569 2945,5568 2921,5556C2849,5518 2799,5608 2830,5720C2843,5767 2873,5785 2911,5770C2961,5749 2994,5796 2948,5821C2908,5842 2866,5841 2820,5818Z" style="fill:rgb(255,178,0);fill-rule:nonzero;"/>
        </g>
        <g transform="matrix(0.1,0,0,-0.1,0,664)">
            <path d="M5647,5826C5572,5799 5547,5756 5548,5659C5548,5553 5586,5503 5673,5493C5722,5487 5790,5511 5790,5533C5790,5563 5764,5572 5729,5555C5672,5525 5630,5567 5630,5656C5630,5747 5673,5798 5727,5769C5749,5757 5754,5758 5766,5775C5784,5800 5784,5807 5763,5818C5728,5836 5684,5839 5647,5826Z" style="fill:rgb(255,178,0);fill-rule:nonzero;"/>
        </g>
        <g transform="matrix(0.1,0,0,-0.1,0,664)">
            <path d="M7394,5829C7390,5822 7358,5820 7296,5825C7160,5835 7110,5808 7110,5725C7110,5681 7134,5640 7160,5640C7180,5640 7169,5619 7144,5610C7123,5602 7119,5595 7122,5568C7126,5530 7144,5523 7236,5521C7281,5520 7301,5515 7313,5502C7336,5477 7334,5465 7304,5441C7257,5404 7170,5423 7170,5471C7170,5486 7163,5490 7135,5490C7102,5490 7100,5488 7100,5457C7100,5400 7137,5376 7228,5372C7320,5368 7372,5386 7395,5430C7413,5465 7414,5481 7398,5515C7381,5552 7341,5570 7276,5570C7246,5570 7218,5575 7215,5580C7204,5598 7230,5620 7262,5620C7303,5620 7356,5645 7370,5671C7378,5684 7380,5710 7376,5736C7371,5779 7371,5780 7398,5780C7441,5780 7455,5793 7439,5819C7424,5842 7405,5846 7394,5829ZM7281,5767C7326,5732 7304,5670 7246,5670C7207,5670 7188,5689 7188,5726C7188,5770 7245,5795 7281,5767Z" style="fill:rgb(255,178,0);fill-rule:nonzero;"/>
        </g>
        <g transform="matrix(0.1,0,0,-0.1,0,664)">
            <path d="M7545,5824C7523,5817 7504,5810 7503,5810C7502,5810 7493,5796 7484,5779C7465,5742 7472,5691 7498,5667C7507,5658 7538,5646 7565,5640C7643,5623 7669,5590 7632,5557C7609,5536 7581,5536 7529,5557C7489,5573 7487,5572 7473,5555C7455,5529 7460,5519 7501,5504C7583,5474 7691,5497 7717,5550C7751,5617 7721,5665 7629,5695C7563,5716 7546,5736 7570,5765C7585,5783 7633,5784 7662,5769C7680,5760 7686,5761 7697,5776C7715,5801 7713,5809 7688,5819C7642,5836 7585,5838 7545,5824Z" style="fill:rgb(255,178,0);fill-rule:nonzero;"/>
        </g>
        <g transform="matrix(0.1,0,0,-0.1,0,664)">
            <path d="M8304,5829C8292,5825 8279,5817 8275,5811C8265,5794 8240,5798 8240,5816C8240,5829 8233,5831 8203,5825C8182,5821 8165,5817 8165,5817C8165,5816 8166,5744 8168,5658L8171,5500L8250,5500L8250,5620C8250,5736 8251,5740 8275,5756C8289,5765 8307,5770 8315,5766C8329,5761 8350,5793 8350,5820C8350,5833 8327,5838 8304,5829Z" style="fill:rgb(255,178,0);fill-rule:nonzero;"/>
        </g>
        <g transform="matrix(0.1,0,0,-0.1,0,664)">
            <path d="M9000,5833C8958,5827 8932,5809 8915,5773C8883,5707 8915,5654 8996,5639C9044,5630 9080,5607 9080,5585C9080,5567 9046,5540 9022,5540C9010,5540 8982,5547 8960,5556C8921,5572 8918,5572 8905,5554C8885,5528 8890,5518 8931,5504C9019,5472 9128,5497 9150,5556C9177,5625 9150,5666 9059,5695C8993,5716 8976,5736 9000,5765C9015,5783 9063,5784 9092,5769C9110,5760 9116,5761 9127,5776C9134,5786 9140,5798 9140,5802C9140,5820 9049,5840 9000,5833Z" style="fill:rgb(255,178,0);fill-rule:nonzero;"/>
        </g>
        <g transform="matrix(0.1,0,0,-0.1,0,664)">
            <path d="M3443,5823C3421,5819 3420,5816 3420,5685C3420,5612 3423,5544 3426,5535C3442,5494 3527,5478 3581,5506C3609,5520 3613,5520 3624,5504C3636,5488 3638,5488 3664,5505C3683,5518 3689,5527 3683,5539C3679,5548 3675,5617 3675,5693L3675,5832L3646,5826C3630,5823 3614,5820 3609,5820C3604,5820 3600,5764 3600,5695L3600,5571L3570,5555C3531,5535 3503,5549 3495,5593C3491,5611 3490,5672 3492,5728C3495,5837 3497,5833 3443,5823Z" style="fill:rgb(255,178,0);fill-rule:nonzero;"/>
        </g>
        <g transform="matrix(0.1,0,0,-0.1,0,664)">
            <path d="M4033,5817C3987,5791 3967,5752 3963,5676C3956,5561 4002,5501 4103,5492C4144,5489 4166,5493 4198,5509C4236,5528 4239,5532 4228,5550C4213,5574 4210,5574 4174,5555C4158,5547 4135,5540 4123,5540C4093,5540 4051,5579 4048,5610C4045,5635 4045,5635 4143,5638L4240,5641L4240,5686C4240,5775 4189,5830 4106,5830C4078,5829 4045,5824 4033,5817ZM4142,5763C4152,5754 4160,5734 4160,5718C4160,5691 4159,5690 4105,5690C4052,5690 4050,5691 4050,5717C4050,5771 4104,5798 4142,5763Z" style="fill:rgb(255,178,0);fill-rule:nonzero;"/>
        </g>
        <g transform="matrix(0.1,0,0,-0.1,0,664)">
            <path d="M4335,5821C4316,5813 4315,5805 4318,5656L4321,5500L4400,5500L4400,5739L4430,5755C4498,5790 4513,5762 4508,5608L4505,5500L4580,5500L4580,5643C4580,5773 4578,5788 4560,5808C4535,5834 4465,5838 4434,5815C4409,5796 4390,5796 4390,5815C4390,5831 4367,5834 4335,5821Z" style="fill:rgb(255,178,0);fill-rule:nonzero;"/>
        </g>
        <g transform="matrix(0.1,0,0,-0.1,0,664)">
            <path d="M4897,5823C4873,5819 4870,5815 4876,5797C4880,5785 4900,5714 4920,5640L4958,5505L4997,5502L5037,5499L5061,5605C5076,5669 5090,5710 5098,5710C5104,5710 5110,5701 5110,5690C5110,5678 5120,5631 5131,5585L5152,5500L5191,5500C5228,5500 5230,5502 5240,5543C5247,5566 5267,5636 5286,5699C5305,5761 5320,5816 5320,5820C5320,5824 5302,5827 5281,5827C5242,5827 5241,5827 5231,5781C5226,5756 5219,5717 5215,5695C5204,5624 5200,5610 5190,5610C5185,5610 5178,5629 5175,5653C5171,5676 5160,5724 5151,5760C5134,5823 5133,5824 5097,5826C5062,5829 5061,5828 5045,5774C5036,5744 5024,5694 5018,5664C5007,5608 4987,5596 4982,5641C4975,5712 4945,5830 4936,5829C4930,5828 4912,5825 4897,5823Z" style="fill:rgb(255,178,0);fill-rule:nonzero;"/>
        </g>
        <g transform="matrix(0.1,0,0,-0.1,0,664)">
            <path d="M5395,5822C5389,5818 5385,5751 5385,5657L5385,5500L5460,5500L5460,5830L5433,5830C5417,5830 5401,5826 5395,5822Z" style="fill:rgb(255,178,0);fill-rule:nonzero;"/>
        </g>
        <g transform="matrix(0.1,0,0,-0.1,0,664)">
            <path d="M6009,5776C5991,5748 5972,5716 5965,5706C5955,5689 5962,5672 6008,5593L6063,5500L6107,5500C6130,5500 6150,5503 6150,5506C6150,5509 6122,5552 6089,5601L6028,5690L6070,5745C6094,5776 6117,5803 6121,5806C6142,5818 6127,5827 6085,5827C6042,5827 6039,5825 6009,5776Z" style="fill:rgb(255,178,0);fill-rule:nonzero;"/>
        </g>
        <g transform="matrix(0.1,0,0,-0.1,0,664)">
            <path d="M6423,5823C6401,5819 6400,5816 6400,5685C6400,5612 6403,5544 6406,5535C6422,5495 6507,5478 6560,5505C6585,5518 6590,5518 6604,5505C6615,5493 6624,5492 6642,5500C6665,5511 6665,5512 6662,5668C6660,5754 6657,5826 6655,5828C6653,5830 6636,5828 6616,5825L6580,5818L6580,5694C6580,5578 6579,5570 6558,5556C6530,5536 6515,5536 6496,5556C6483,5568 6480,5597 6480,5701C6480,5841 6483,5835 6423,5823Z" style="fill:rgb(255,178,0);fill-rule:nonzero;"/>
        </g>
        <g transform="matrix(0.1,0,0,-0.1,0,664)">
            <path d="M6775,5821C6756,5813 6755,5805 6758,5656L6761,5500L6840,5500L6840,5740L6874,5757C6939,5788 6950,5764 6947,5601L6945,5500L7020,5500L7020,5645C7020,5780 7019,5790 6998,5810C6972,5834 6917,5836 6876,5815C6840,5796 6830,5796 6830,5815C6830,5831 6807,5834 6775,5821Z" style="fill:rgb(255,178,0);fill-rule:nonzero;"/>
        </g>
        <g transform="matrix(0.1,0,0,-0.1,0,664)">
            <path d="M7828,5823C7811,5819 7810,5799 7810,5584C7810,5455 7812,5350 7814,5350C7815,5350 7831,5355 7848,5361C7878,5371 7879,5374 7882,5438C7884,5492 7888,5504 7900,5501C7951,5486 7991,5489 8024,5509C8076,5541 8093,5587 8088,5682C8085,5759 8084,5763 8048,5796C8018,5823 8002,5830 7970,5830C7948,5830 7921,5824 7910,5818C7895,5808 7888,5808 7878,5818C7866,5830 7858,5831 7828,5823ZM7991,5753C8013,5727 8009,5597 7986,5571C7965,5548 7930,5544 7899,5560C7883,5569 7880,5582 7880,5652C7880,5714 7884,5738 7897,5752C7917,5775 7973,5776 7991,5753Z" style="fill:rgb(255,178,0);fill-rule:nonzero;"/>
        </g>
        <g transform="matrix(0.1,0,0,-0.1,0,664)">
            <path d="M8442,5810C8400,5784 8380,5737 8380,5663C8380,5525 8483,5455 8610,5506C8651,5523 8660,5539 8636,5559C8626,5567 8616,5567 8594,5555C8559,5537 8539,5536 8506,5551C8481,5563 8455,5614 8466,5631C8469,5636 8514,5640 8567,5640L8663,5640L8656,5698C8646,5789 8604,5830 8520,5830C8492,5830 8462,5822 8442,5810ZM8566,5755C8594,5711 8582,5695 8520,5695C8468,5695 8465,5696 8468,5719C8474,5777 8536,5800 8566,5755Z" style="fill:rgb(255,178,0);fill-rule:nonzero;"/>
        </g>
        <g transform="matrix(0.1,0,0,-0.1,0,664)">
            <path d="M8758,5823C8742,5819 8740,5803 8740,5659L8740,5500L8820,5500L8820,5665C8820,5830 8820,5830 8798,5829C8785,5828 8767,5826 8758,5823Z" style="fill:rgb(255,178,0);fill-rule:nonzero;"/>
        </g>
        <g transform="matrix(0.1,0,0,-0.1,0,664)">
            <path d="M5851,5258C5846,5229 5840,5196 5838,5185C5835,5168 5825,5164 5774,5160C5713,5155 5668,5134 5640,5096C5613,5060 5591,4986 5590,4932C5590,4886 5594,4874 5619,4849C5653,4816 5685,4812 5737,4837C5764,4849 5774,4850 5780,4841C5784,4834 5800,4830 5816,4832C5838,4834 5846,4841 5848,4860C5849,4874 5869,4976 5892,5088C5914,5199 5931,5292 5929,5294C5927,5296 5911,5301 5893,5304C5862,5311 5862,5311 5851,5258ZM5803,5090C5818,5076 5779,4928 5754,4903C5710,4859 5670,4879 5670,4945C5670,4992 5710,5083 5737,5099C5755,5109 5787,5105 5803,5090Z" style="fill:rgb(255,178,0);fill-rule:nonzero;"/>
        </g>
        <g transform="matrix(0.1,0,0,-0.1,0,664)">
            <path d="M7238,5298C7219,5291 7210,5281 7210,5266C7210,5242 7159,4993 7135,4899C7127,4868 7120,4839 7120,4836C7120,4833 7138,4830 7159,4830C7191,4830 7199,4834 7203,4853C7205,4865 7216,4915 7226,4964C7244,5048 7247,5055 7284,5082C7328,5114 7342,5116 7359,5096C7368,5085 7365,5055 7346,4961C7331,4894 7320,4837 7320,4834C7320,4831 7337,4830 7357,4832L7395,4835L7422,4960C7455,5112 7455,5125 7430,5150C7403,5177 7363,5175 7306,5145C7281,5132 7260,5124 7260,5128C7261,5132 7267,5162 7275,5195C7293,5269 7294,5310 7278,5309C7271,5309 7253,5304 7238,5298Z" style="fill:rgb(255,178,0);fill-rule:nonzero;"/>
        </g>
        <g transform="matrix(0.1,0,0,-0.1,0,664)">
            <path d="M7964,5299C7935,5291 7932,5286 7926,5235C7923,5204 7906,5118 7890,5043C7873,4968 7860,4894 7860,4880C7860,4834 7907,4808 7954,4826C7975,4834 7974,4867 7953,4878C7937,4887 7939,4902 7973,5061C8009,5228 8019,5311 8003,5309C7998,5309 7981,5304 7964,5299Z" style="fill:rgb(255,178,0);fill-rule:nonzero;"/>
        </g>
        <g transform="matrix(0.1,0,0,-0.1,0,664)">
            <path d="M2552,5280C2481,5263 2411,5195 2379,5112C2359,5060 2349,4971 2360,4932C2381,4853 2462,4814 2569,4831C2665,4846 2671,4852 2695,4967C2707,5023 2715,5072 2712,5075C2709,5078 2671,5080 2628,5080L2550,5080L2550,5045C2550,5013 2553,5010 2578,5010C2617,5010 2619,5006 2608,4952C2597,4899 2579,4880 2537,4880C2440,4880 2417,4997 2486,5138C2507,5180 2521,5196 2556,5213C2600,5234 2602,5234 2652,5216C2702,5199 2703,5199 2723,5219C2740,5235 2741,5242 2731,5254C2705,5285 2623,5297 2552,5280Z" style="fill:rgb(255,178,0);fill-rule:nonzero;"/>
        </g>
        <g transform="matrix(0.1,0,0,-0.1,0,664)">
            <path d="M6581,5268C6510,5233 6474,5151 6504,5092C6516,5069 6535,5056 6590,5035C6629,5020 6665,5000 6670,4990C6682,4967 6670,4932 6640,4905C6612,4879 6523,4879 6484,4905C6458,4922 6457,4922 6435,4894C6406,4858 6415,4846 6482,4830C6632,4794 6770,4871 6770,4992C6770,5052 6748,5076 6669,5104C6601,5127 6590,5136 6590,5169C6590,5221 6681,5248 6744,5215C6772,5200 6775,5200 6797,5224C6810,5238 6820,5252 6820,5254C6820,5257 6804,5267 6784,5275C6730,5297 6634,5294 6581,5268Z" style="fill:rgb(255,178,0);fill-rule:nonzero;"/>
        </g>
        <g transform="matrix(0.1,0,0,-0.1,0,664)">
            <path d="M3233,5249C3207,5241 3201,5234 3195,5200C3190,5170 3184,5160 3169,5160C3159,5160 3150,5156 3150,5151C3150,5146 3147,5135 3144,5126C3140,5115 3143,5110 3155,5110C3168,5110 3171,5104 3167,5083C3165,5067 3154,5011 3145,4958C3130,4879 3129,4858 3139,4846C3168,4811 3275,4818 3275,4856C3275,4870 3269,4874 3254,4872C3212,4866 3207,4891 3229,4999C3241,5054 3250,5101 3250,5104C3250,5107 3264,5110 3281,5110C3310,5110 3339,5131 3340,5153C3340,5157 3325,5160 3307,5160C3288,5160 3271,5163 3268,5166C3262,5171 3270,5205 3285,5243C3293,5262 3283,5263 3233,5249Z" style="fill:rgb(255,178,0);fill-rule:nonzero;"/>
        </g>
        <g transform="matrix(0.1,0,0,-0.1,0,664)">
            <path d="M2868,5162C2854,5160 2837,5153 2832,5147C2825,5137 2810,5070 2775,4886C2770,4860 2813,4820 2847,4820C2863,4820 2893,4829 2915,4840C2962,4864 2960,4864 2960,4846C2960,4822 2977,4818 3008,4834C3031,4846 3036,4854 3033,4877C3031,4892 3042,4962 3058,5033L3087,5160L3061,5160C3015,5160 3003,5141 2984,5035C2969,4954 2961,4930 2939,4908C2908,4876 2863,4870 2858,4898C2855,4913 2893,5114 2905,5147C2910,5163 2901,5167 2868,5162Z" style="fill:rgb(255,178,0);fill-rule:nonzero;"/>
        </g>
        <g transform="matrix(0.1,0,0,-0.1,0,664)">
            <path d="M3499,5163C3453,5156 3393,5095 3370,5032C3312,4879 3395,4786 3546,4834C3584,4846 3600,4856 3600,4868C3600,4893 3584,4915 3576,4901C3572,4895 3552,4886 3530,4880C3483,4867 3442,4883 3434,4917C3423,4959 3435,4970 3492,4970C3609,4970 3686,5054 3635,5127C3621,5147 3560,5172 3535,5168C3530,5168 3513,5165 3499,5163ZM3567,5082C3575,5048 3541,5020 3489,5020C3447,5020 3442,5029 3464,5069C3493,5121 3555,5129 3567,5082Z" style="fill:rgb(255,178,0);fill-rule:nonzero;"/>
        </g>
        <g transform="matrix(0.1,0,0,-0.1,0,664)">
            <path d="M4015,5165C4010,5163 3993,5159 3978,5156C3878,5134 3799,4934 3860,4857C3886,4825 3939,4813 3980,4830C3997,4837 4013,4840 4017,4837C4027,4827 3999,4770 3976,4755C3952,4738 3878,4735 3849,4751C3832,4759 3826,4758 3815,4743C3807,4733 3802,4721 3804,4715C3809,4698 3893,4681 3945,4687C4039,4697 4079,4738 4095,4840C4099,4865 4115,4943 4131,5014C4147,5084 4160,5144 4160,5145C4160,5153 4030,5171 4015,5165ZM4065,5101C4072,5089 4042,4954 4024,4919C4010,4891 3991,4880 3960,4880C3900,4880 3918,5039 3984,5092C4007,5111 4055,5116 4065,5101Z" style="fill:rgb(255,178,0);fill-rule:nonzero;"/>
        </g>
        <g transform="matrix(0.1,0,0,-0.1,0,664)">
            <path d="M4354,5161C4279,5143 4221,5059 4213,4956C4208,4900 4210,4891 4234,4863C4267,4824 4328,4811 4395,4830C4447,4845 4464,4861 4455,4889C4449,4909 4447,4909 4424,4894C4411,4885 4381,4877 4359,4876C4312,4875 4287,4899 4292,4940C4295,4963 4300,4966 4361,4972C4437,4979 4460,4989 4489,5026C4530,5078 4508,5141 4442,5160C4401,5171 4398,5171 4354,5161ZM4426,5083C4435,5047 4402,5020 4349,5020C4304,5020 4301,5030 4330,5078C4346,5104 4356,5110 4385,5110C4414,5110 4421,5106 4426,5083Z" style="fill:rgb(255,178,0);fill-rule:nonzero;"/>
        </g>
        <g transform="matrix(0.1,0,0,-0.1,0,664)">
            <path d="M4657,5156C4607,5137 4593,5125 4580,5084C4561,5027 4580,4996 4650,4971C4727,4943 4740,4907 4684,4881C4658,4869 4589,4881 4564,4901C4551,4912 4515,4865 4525,4850C4535,4833 4636,4817 4686,4825C4752,4835 4800,4882 4800,4937C4800,4983 4786,4998 4717,5028C4666,5051 4651,5072 4670,5095C4684,5112 4752,5115 4780,5100C4794,5092 4801,5095 4814,5115C4829,5138 4829,5140 4810,5150C4776,5168 4698,5171 4657,5156Z" style="fill:rgb(255,178,0);fill-rule:nonzero;"/>
        </g>
        <g transform="matrix(0.1,0,0,-0.1,0,664)">
            <path d="M4962,5159C4944,5156 4928,5151 4926,5149C4919,5141 4870,4918 4870,4894C4870,4828 4929,4803 5002,4838C5045,4860 5060,4859 5060,4833C5060,4823 5065,4820 5078,4825C5087,4829 5103,4835 5113,4837C5126,4841 5130,4849 5126,4865C5123,4877 5133,4947 5149,5021C5166,5095 5177,5156 5175,5159C5173,5161 5156,5160 5137,5156L5103,5150L5080,5042C5063,4960 5052,4929 5032,4908C5004,4877 4963,4871 4953,4896C4950,4905 4959,4968 4973,5038C4988,5107 4999,5164 4997,5165C4996,5166 4980,5163 4962,5159Z" style="fill:rgb(255,178,0);fill-rule:nonzero;"/>
        </g>
        <g transform="matrix(0.1,0,0,-0.1,0,664)">
            <path d="M5298,5157C5276,5149 5270,5139 5270,5117C5270,5102 5259,5034 5245,4968C5231,4902 5220,4843 5220,4838C5220,4833 5237,4830 5257,4832L5295,4835L5317,4945C5334,5026 5346,5061 5363,5076C5390,5103 5420,5112 5440,5100C5452,5092 5451,5078 5433,4993C5393,4813 5393,4830 5434,4830C5453,4830 5471,4833 5473,4838C5485,4857 5530,5107 5526,5125C5514,5171 5435,5178 5379,5139C5351,5119 5340,5123 5340,5152C5340,5172 5337,5173 5298,5157Z" style="fill:rgb(255,178,0);fill-rule:nonzero;"/>
        </g>
        <g transform="matrix(0.1,0,0,-0.1,0,664)">
            <path d="M6096,5163C6052,5156 5984,5082 5966,5019C5946,4954 5946,4929 5965,4884C5988,4828 6058,4807 6142,4830C6193,4844 6213,4866 6200,4891C6190,4908 6187,4909 6167,4896C6155,4888 6131,4879 6113,4875C6086,4870 6076,4873 6055,4894C6039,4910 6030,4929 6032,4943C6035,4962 6042,4966 6100,4971C6171,4977 6224,4999 6240,5029C6255,5058 6252,5116 6235,5134C6220,5149 6155,5171 6135,5168C6130,5168 6112,5165 6096,5163ZM6168,5078C6172,5044 6135,5017 6089,5022C6047,5026 6043,5040 6076,5079C6097,5105 6109,5110 6134,5108C6159,5106 6166,5100 6168,5078Z" style="fill:rgb(255,178,0);fill-rule:nonzero;"/>
        </g>
        <g transform="matrix(0.1,0,0,-0.1,0,664)">
            <path d="M6955,5151C6905,5128 6887,5108 6859,5045C6827,4974 6827,4890 6859,4856C6887,4826 6944,4815 6996,4829C7058,4846 7066,4854 7052,4885C7041,4910 7039,4910 7018,4896C6990,4876 6946,4876 6930,4895C6912,4916 6922,4997 6949,5054C6974,5105 7008,5122 7043,5101C7060,5090 7066,5092 7088,5113L7113,5138L7082,5154C7042,5175 7004,5174 6955,5151Z" style="fill:rgb(255,178,0);fill-rule:nonzero;"/>
        </g>
        <g transform="matrix(0.1,0,0,-0.1,0,664)">
            <path d="M7592,5159C7574,5155 7558,5151 7556,5149C7554,5147 7541,5086 7526,5013C7497,4874 7499,4852 7540,4830C7569,4815 7601,4818 7643,4840C7688,4864 7687,4864 7693,4840C7697,4823 7702,4822 7729,4831C7757,4841 7760,4846 7760,4883C7760,4906 7771,4972 7785,5030C7817,5167 7817,5168 7780,5162C7740,5156 7736,5148 7716,5050C7706,5003 7694,4953 7688,4938C7670,4890 7600,4861 7586,4895C7583,4904 7592,4965 7606,5031C7620,5098 7630,5155 7628,5159C7626,5163 7610,5163 7592,5159Z" style="fill:rgb(255,178,0);fill-rule:nonzero;"/>
        </g>
        <g transform="matrix(0.1,0,0,-0.1,0,664)">
            <path d="M8225,5165C8220,5163 8203,5159 8188,5156C8079,5132 8015,4907 8099,4843C8124,4824 8192,4817 8236,4829C8292,4844 8311,4860 8304,4887C8298,4909 8297,4909 8267,4894C8229,4874 8177,4872 8156,4889C8147,4897 8140,4918 8140,4936L8140,4970L8193,4970C8246,4970 8316,4995 8336,5021C8367,5059 8359,5129 8323,5149C8301,5160 8239,5171 8225,5165ZM8278,5077C8283,5051 8240,5020 8198,5020C8155,5020 8148,5038 8176,5078C8207,5123 8269,5122 8278,5077Z" style="fill:rgb(255,178,0);fill-rule:nonzero;"/>
        </g>
        <g transform="matrix(0.1,0,0,-0.1,-14.3958,435.481)">
            <path d="M5385,2293C5352,2284 5311,2250 5295,2220C5237,2107 5367,1977 5480,2035C5570,2081 5584,2205 5507,2264C5474,2289 5419,2302 5385,2293Z" style="fill-rule:nonzero;"/>
        </g>
        <g transform="matrix(0.1,0,0,-0.1,-14.3958,435.481)">
            <path d="M5053,2145C5037,2101 5089,1968 5148,1906C5297,1752 5547,1751 5690,1906C5743,1963 5781,2047 5783,2108L5785,2155L5618,2155L5598,2103C5552,1978 5409,1930 5311,2007C5277,2035 5239,2094 5227,2139C5222,2158 5214,2160 5141,2160C5077,2160 5058,2157 5053,2145Z" style="fill-rule:nonzero;"/>
        </g>
        <g transform="matrix(0.1,0,0,-0.1,-14.3958,435.481)">
            <path d="M6135,2152C6132,2149 6130,2085 6130,2009C6130,1857 6124,1840 6070,1840C6016,1840 6010,1857 6010,2011L6010,2150L5940,2150L5940,1842L5970,1816C6028,1768 6121,1770 6172,1820L6200,1848L6200,2148L6170,2152C6153,2155 6138,2154 6135,2152Z" style="fill-rule:nonzero;"/>
        </g>
        <g transform="matrix(0.1,0,0,-0.1,-14.3958,435.481)">
            <path d="M6456,2140C6443,2124 6402,2059 6385,2026C6380,2015 6369,2005 6363,2002C6353,1999 6350,2018 6350,2074L6350,2150L6280,2150L6280,1790L6350,1790L6350,1881C6350,1938 6354,1970 6360,1968C6366,1966 6392,1927 6418,1880L6465,1795L6513,1792C6539,1790 6560,1791 6560,1794C6560,1797 6531,1841 6496,1891L6431,1984L6486,2063C6516,2106 6540,2145 6540,2149C6540,2163 6469,2155 6456,2140Z" style="fill-rule:nonzero;"/>
        </g>
        <g transform="matrix(0.1,0,0,-0.1,-14.3958,435.481)">
            <path d="M6719,2150C6714,2147 6712,2066 6713,1970L6715,1795L6749,1792L6782,1789L6779,1909C6775,2029 6781,2055 6801,2003C6807,1987 6829,1933 6852,1883L6892,1790L6970,1790L6968,1972L6965,2154L6905,2154L6909,2042C6911,1980 6908,1930 6904,1930C6899,1931 6873,1981 6845,2042C6796,2151 6794,2153 6762,2154C6743,2155 6724,2153 6719,2150Z" style="fill-rule:nonzero;"/>
        </g>
        <g transform="matrix(0.1,0,0,-0.1,-14.3958,435.481)">
            <path d="M7057,2154C7053,2150 7050,2066 7050,1968L7050,1790L7120,1790L7120,1865C7120,1918 7124,1940 7133,1940C7139,1940 7164,1906 7188,1865C7230,1791 7231,1790 7270,1790C7292,1790 7310,1792 7310,1796C7310,1799 7289,1833 7264,1872C7222,1936 7219,1944 7235,1953C7276,1976 7290,2000 7290,2049C7290,2088 7285,2102 7264,2124C7240,2147 7230,2150 7164,2150C7124,2150 7085,2152 7078,2155C7070,2158 7061,2157 7057,2154ZM7204,2084C7242,2047 7208,1990 7148,1990C7121,1990 7120,1992 7120,2045L7120,2100L7154,2100C7173,2100 7196,2093 7204,2084Z" style="fill-rule:nonzero;"/>
        </g>
        <g transform="matrix(0.1,0,0,-0.1,-14.3958,435.481)">
            <path d="M7329,2151C7327,2141 7327,2140 7364,1980C7410,1784 7409,1785 7449,1786C7467,1786 7484,1791 7489,1796C7493,1801 7505,1850 7515,1905C7525,1960 7536,2009 7541,2014C7549,2024 7550,2022 7577,1883C7586,1832 7598,1790 7602,1789C7661,1782 7675,1787 7682,1816C7721,1970 7759,2143 7756,2149C7753,2153 7739,2156 7723,2155C7696,2155 7694,2151 7673,2070C7661,2023 7651,1970 7651,1953C7650,1935 7645,1920 7640,1920C7627,1920 7626,1923 7605,2047L7587,2148L7551,2153C7531,2155 7512,2155 7508,2151C7503,2146 7482,2047 7465,1948C7462,1927 7456,1910 7452,1910C7448,1910 7435,1962 7423,2026C7411,2090 7399,2144 7396,2147C7389,2154 7330,2157 7329,2151Z" style="fill-rule:nonzero;"/>
        </g>
        <g transform="matrix(0.1,0,0,-0.1,-14.3958,435.481)">
            <path d="M6221,1686C6205,1667 6211,1538 6228,1532C6236,1530 6240,1543 6240,1577C6240,1604 6245,1631 6252,1638C6261,1647 6261,1650 6252,1650C6234,1650 6237,1671 6258,1686C6274,1698 6274,1699 6254,1700C6242,1700 6227,1694 6221,1686Z" style="fill-rule:nonzero;"/>
        </g>
        <g transform="matrix(0.1,0,0,-0.1,-14.3958,435.481)">
            <path d="M6400,1621C6400,1575 6405,1538 6411,1535C6417,1531 6422,1530 6423,1531C6430,1543 6417,1700 6409,1700C6404,1700 6400,1664 6400,1621Z" style="fill-rule:nonzero;"/>
        </g>
        <g transform="matrix(0.1,0,0,-0.1,-14.3958,435.481)">
            <path d="M6460,1621C6460,1575 6465,1538 6471,1535C6477,1531 6482,1530 6483,1531C6490,1543 6477,1700 6469,1700C6464,1700 6460,1664 6460,1621Z" style="fill-rule:nonzero;"/>
        </g>
        <g transform="matrix(0.1,0,0,-0.1,-14.3958,435.481)">
            <path d="M6520,1615C6520,1565 6524,1530 6530,1530C6536,1530 6540,1545 6540,1563L6541,1595L6569,1560C6603,1520 6622,1525 6592,1567C6574,1592 6574,1596 6587,1617C6596,1630 6599,1644 6595,1648C6591,1652 6581,1645 6573,1633C6550,1598 6540,1605 6540,1655C6540,1680 6536,1700 6530,1700C6524,1700 6520,1665 6520,1615Z" style="fill-rule:nonzero;"/>
        </g>
        <g transform="matrix(0.1,0,0,-0.1,-14.3958,435.481)">
            <path d="M7560,1677C7560,1655 7555,1650 7536,1650C7508,1650 7480,1617 7480,1584C7480,1554 7513,1528 7547,1532C7575,1535 7575,1536 7578,1609C7580,1651 7576,1688 7570,1694C7563,1701 7560,1696 7560,1677ZM7555,1590C7555,1562 7551,1554 7534,1552C7509,1548 7499,1574 7511,1609C7525,1645 7555,1632 7555,1590Z" style="fill-rule:nonzero;"/>
        </g>
        <g transform="matrix(0.1,0,0,-0.1,-14.3958,435.481)">
            <path d="M7700,1616C7700,1525 7717,1496 7722,1578C7725,1617 7728,1625 7745,1625C7762,1625 7765,1617 7768,1578C7772,1515 7790,1516 7790,1579C7790,1633 7773,1656 7740,1645C7724,1640 7720,1643 7720,1664C7720,1678 7716,1692 7710,1695C7704,1699 7700,1670 7700,1616Z" style="fill-rule:nonzero;"/>
        </g>
        <g transform="matrix(0.1,0,0,-0.1,-14.3958,435.481)">
            <path d="M7950,1685C7950,1677 7955,1670 7960,1670C7966,1670 7970,1677 7970,1685C7970,1693 7966,1700 7960,1700C7955,1700 7950,1693 7950,1685Z" style="fill-rule:nonzero;"/>
        </g>
        <g transform="matrix(0.1,0,0,-0.1,-14.3958,435.481)">
            <path d="M8701,1686C8686,1669 8690,1534 8705,1537C8711,1539 8716,1559 8718,1582C8720,1606 8727,1628 8733,1633C8742,1640 8742,1643 8733,1647C8715,1654 8717,1671 8738,1686C8754,1698 8754,1699 8734,1700C8722,1700 8707,1694 8701,1686Z" style="fill-rule:nonzero;"/>
        </g>
        <g transform="matrix(0.1,0,0,-0.1,-14.3958,435.481)">
            <path d="M8886,1693C8878,1685 8878,1567 8886,1546C8889,1537 8899,1530 8906,1530C8918,1530 8918,1534 8909,1551C8902,1564 8901,1593 8905,1630C8911,1683 8903,1710 8886,1693Z" style="fill-rule:nonzero;"/>
        </g>
        <g transform="matrix(0.1,0,0,-0.1,-14.3958,435.481)">
            <path d="M5940,1622C5940,1547 5950,1530 5991,1530C6037,1530 6051,1554 6048,1624C6044,1697 6025,1698 6024,1625C6024,1567 6016,1550 5990,1550C5967,1550 5960,1569 5960,1636C5960,1666 5956,1690 5950,1690C5944,1690 5940,1661 5940,1622Z" style="fill-rule:nonzero;"/>
        </g>
        <g transform="matrix(0.1,0,0,-0.1,-14.3958,435.481)">
            <path d="M7140,1610C7140,1563 7144,1530 7150,1530C7156,1530 7160,1553 7160,1580C7160,1608 7164,1630 7169,1630C7174,1630 7187,1607 7199,1579C7211,1551 7226,1530 7233,1533C7248,1538 7250,1681 7235,1677C7230,1676 7227,1655 7229,1631C7233,1577 7217,1583 7190,1646C7179,1671 7164,1690 7155,1690C7143,1690 7140,1675 7140,1610Z" style="fill-rule:nonzero;"/>
        </g>
        <g transform="matrix(0.1,0,0,-0.1,-14.3958,435.481)">
            <path d="M8190,1681C8190,1677 8194,1660 8200,1644C8205,1628 8214,1596 8220,1573C8234,1515 8257,1517 8266,1575C8276,1648 8289,1644 8305,1563C8319,1496 8348,1537 8366,1648C8370,1674 8369,1690 8362,1690C8351,1690 8340,1657 8340,1618C8340,1574 8322,1576 8310,1622C8294,1684 8292,1690 8281,1690C8276,1690 8266,1665 8260,1635C8249,1581 8230,1568 8230,1615C8230,1647 8213,1690 8200,1690C8195,1690 8190,1686 8190,1681Z" style="fill-rule:nonzero;"/>
        </g>
        <g transform="matrix(0.1,0,0,-0.1,-14.3958,435.481)">
            <path d="M8618,1663C8616,1653 8616,1620 8619,1590C8624,1549 8629,1534 8643,1532C8652,1530 8660,1533 8660,1539C8660,1545 8656,1550 8650,1550C8636,1550 8638,1614 8653,1629C8663,1640 8663,1643 8653,1647C8646,1650 8640,1658 8640,1666C8640,1686 8623,1683 8618,1663Z" style="fill-rule:nonzero;"/>
        </g>
        <g transform="matrix(0.1,0,0,-0.1,-14.3958,435.481)">
            <path d="M6089,1643C6089,1641 6088,1617 6088,1588C6087,1521 6108,1512 6112,1577C6114,1612 6119,1625 6130,1625C6140,1625 6146,1612 6148,1585C6154,1517 6171,1517 6168,1585L6165,1645L6128,1645C6107,1645 6090,1644 6089,1643Z" style="fill-rule:nonzero;"/>
        </g>
        <g transform="matrix(0.1,0,0,-0.1,-14.3958,435.481)">
            <path d="M6293,1643C6270,1634 6279,1619 6304,1626C6340,1635 6347,1611 6312,1599C6252,1578 6265,1528 6328,1533L6364,1535L6361,1585C6358,1645 6338,1662 6293,1643ZM6337,1574C6344,1556 6320,1536 6306,1550C6295,1561 6305,1590 6320,1590C6326,1590 6333,1583 6337,1574Z" style="fill-rule:nonzero;"/>
        </g>
        <g transform="matrix(0.1,0,0,-0.1,-14.3958,435.481)">
            <path d="M6647,1643C6632,1629 6641,1620 6665,1626C6702,1635 6697,1607 6660,1593C6641,1586 6630,1575 6630,1562C6630,1540 6648,1530 6689,1530C6716,1530 6717,1532 6715,1578C6714,1605 6710,1632 6706,1638C6698,1651 6658,1654 6647,1643ZM6690,1571C6690,1547 6678,1539 6660,1550C6649,1557 6649,1561 6659,1574C6677,1596 6690,1594 6690,1571Z" style="fill-rule:nonzero;"/>
        </g>
        <g transform="matrix(0.1,0,0,-0.1,-14.3958,435.481)">
            <path d="M6760,1635C6743,1615 6754,1592 6786,1580C6818,1567 6812,1544 6776,1547C6762,1548 6750,1545 6750,1539C6750,1528 6800,1527 6818,1539C6839,1552 6828,1583 6797,1598C6767,1612 6769,1630 6801,1630C6811,1630 6820,1635 6820,1640C6820,1656 6774,1652 6760,1635Z" style="fill-rule:nonzero;"/>
        </g>
        <g transform="matrix(0.1,0,0,-0.1,-14.3958,435.481)">
            <path d="M6866,1635C6846,1614 6855,1594 6892,1581C6928,1568 6924,1544 6886,1547C6872,1548 6860,1545 6860,1539C6860,1524 6916,1529 6930,1545C6946,1565 6936,1588 6905,1600C6873,1612 6873,1630 6905,1630C6919,1630 6930,1635 6930,1640C6930,1656 6883,1652 6866,1635Z" style="fill-rule:nonzero;"/>
        </g>
        <g transform="matrix(0.1,0,0,-0.1,-14.3958,435.481)">
            <path d="M6982,1638C6975,1631 6970,1610 6970,1590C6970,1570 6975,1549 6982,1542C6997,1527 7050,1526 7050,1541C7050,1547 7043,1549 7034,1546C7017,1540 6990,1555 6990,1571C6990,1575 7005,1580 7022,1582C7060,1585 7070,1609 7045,1634C7026,1653 6999,1655 6982,1638ZM7034,1621C7037,1616 7034,1608 7027,1602C7012,1589 6985,1603 6994,1619C7003,1632 7027,1634 7034,1621Z" style="fill-rule:nonzero;"/>
        </g>
        <g transform="matrix(0.1,0,0,-0.1,-14.3958,435.481)">
            <path d="M7297,1632C7262,1594 7283,1530 7330,1530C7378,1530 7399,1599 7362,1633C7338,1655 7317,1654 7297,1632ZM7351,1606C7364,1579 7347,1536 7327,1543C7306,1549 7295,1597 7310,1614C7328,1636 7339,1634 7351,1606Z" style="fill-rule:nonzero;"/>
        </g>
        <g transform="matrix(0.1,0,0,-0.1,-14.3958,435.481)">
            <path d="M7432,1643C7411,1639 7409,1634 7412,1589C7415,1533 7435,1522 7435,1576C7435,1598 7442,1617 7453,1625C7470,1638 7476,1651 7463,1649C7458,1648 7445,1645 7432,1643Z" style="fill-rule:nonzero;"/>
        </g>
        <g transform="matrix(0.1,0,0,-0.1,-14.3958,435.481)">
            <path d="M7620,1588C7620,1556 7624,1530 7630,1530C7636,1530 7640,1550 7640,1574C7640,1604 7645,1620 7655,1624C7679,1633 7672,1648 7645,1646C7621,1645 7620,1642 7620,1588Z" style="fill-rule:nonzero;"/>
        </g>
        <g transform="matrix(0.1,0,0,-0.1,-14.3958,435.481)">
            <path d="M7836,1628C7827,1616 7820,1599 7820,1590C7820,1560 7850,1530 7881,1530C7897,1530 7910,1535 7910,1541C7910,1547 7903,1550 7895,1546C7874,1538 7850,1549 7850,1566C7850,1575 7861,1580 7879,1580C7917,1580 7926,1595 7906,1625C7886,1656 7856,1657 7836,1628ZM7890,1615C7890,1607 7881,1600 7870,1600C7850,1600 7844,1611 7857,1623C7869,1636 7890,1630 7890,1615Z" style="fill-rule:nonzero;"/>
        </g>
        <g transform="matrix(0.1,0,0,-0.1,-14.3958,435.481)">
            <path d="M8033,1643C8012,1639 8010,1633 8010,1584C8010,1518 8028,1512 8032,1578C8035,1617 8038,1625 8055,1625C8072,1625 8075,1617 8078,1578C8080,1551 8085,1530 8091,1530C8104,1530 8102,1624 8088,1638C8076,1650 8072,1651 8033,1643Z" style="fill-rule:nonzero;"/>
        </g>
        <g transform="matrix(0.1,0,0,-0.1,-14.3958,435.481)">
            <path d="M8402,1638C8395,1631 8390,1610 8390,1590C8390,1570 8395,1549 8402,1542C8417,1527 8470,1526 8470,1541C8470,1547 8463,1549 8454,1546C8437,1540 8410,1555 8410,1571C8410,1575 8425,1580 8442,1582C8480,1585 8490,1609 8465,1634C8446,1653 8419,1655 8402,1638ZM8450,1616C8450,1599 8423,1587 8415,1600C8411,1606 8412,1615 8415,1620C8424,1635 8450,1632 8450,1616Z" style="fill-rule:nonzero;"/>
        </g>
        <g transform="matrix(0.1,0,0,-0.1,-14.3958,435.481)">
            <path d="M8517,1643C8513,1640 8510,1627 8510,1614C8510,1598 8519,1589 8541,1581C8568,1572 8571,1568 8560,1555C8553,1546 8539,1542 8529,1545C8518,1549 8510,1547 8510,1541C8510,1525 8566,1528 8580,1545C8596,1565 8586,1588 8555,1600C8523,1612 8523,1630 8556,1630C8570,1630 8579,1634 8575,1640C8568,1651 8527,1654 8517,1643Z" style="fill-rule:nonzero;"/>
        </g>
        <g transform="matrix(0.1,0,0,-0.1,-14.3958,435.481)">
            <path d="M8773,1643C8748,1633 8761,1621 8790,1627C8813,1631 8820,1629 8820,1618C8820,1609 8808,1600 8791,1597C8733,1585 8745,1530 8806,1532L8840,1533L8840,1586C8840,1645 8820,1662 8773,1643ZM8820,1565C8820,1546 8800,1536 8788,1548C8780,1556 8781,1564 8790,1574C8804,1591 8820,1586 8820,1565Z" style="fill-rule:nonzero;"/>
        </g>
        <g transform="matrix(0.1,0,0,-0.1,-14.3958,435.481)">
            <path d="M8956,1634C8937,1616 8935,1559 8952,1542C8967,1527 9017,1526 9026,1542C9031,1549 9027,1551 9013,1548C8991,1542 8960,1555 8960,1570C8960,1576 8976,1580 8995,1580C9025,1580 9030,1583 9030,1603C9030,1647 8987,1665 8956,1634ZM9008,1613C9010,1605 9002,1600 8986,1600C8961,1600 8953,1610 8967,1624C8977,1634 9003,1627 9008,1613Z" style="fill-rule:nonzero;"/>
        </g>
        <g transform="matrix(0.1,0,0,-0.1,-14.3958,435.481)">
            <path d="M9088,1643C9063,1639 9062,1636 9063,1587C9065,1527 9084,1516 9086,1573C9088,1647 9130,1649 9130,1574C9130,1550 9135,1530 9140,1530C9147,1530 9150,1552 9148,1587C9145,1648 9142,1651 9088,1643Z" style="fill-rule:nonzero;"/>
        </g>
        <g transform="matrix(0.1,0,0,-0.1,-14.3958,435.481)">
            <path d="M7950,1585C7950,1555 7955,1530 7960,1530C7966,1530 7970,1555 7970,1585C7970,1615 7966,1640 7960,1640C7955,1640 7950,1615 7950,1585Z" style="fill-rule:nonzero;"/>
        </g>
        <g transform="matrix(0.1,0,0,-0.1,-14.3958,435.481)">
            <path d="M8135,1590C8138,1585 8147,1580 8155,1580C8163,1580 8172,1585 8175,1590C8179,1596 8170,1600 8155,1600C8140,1600 8131,1596 8135,1590Z" style="fill-rule:nonzero;"/>
        </g>
    </g>
</svg>
